<svg xmlns="http://www.w3.org/2000/svg" viewBox="0 0 64 64" id="Date"><path fill="#00a15e" d="M61.47 30.5c.21 2.26-.75 4.03-1.6 5.59-.24.44-.48.88-.69 1.33-.37.79-.93 1.96-1.91 2.81.36.92.61 2.02.32 3.16-.21.8-.64 1.45-.95 1.92-1.48 2.23-3.29 4.72-6.04 6.1-1.22.61-2.54.94-3.7 1.23l-3.9.99c-.98.25-1.99.5-3.08.57-.19.01-.37.01-.55.01-1.81 0-3.53-.5-5.06-.95l-3.64-1.07c-.99-.29-2.11-.61-3.13-1.27-.95-.62-1.67-1.44-2.31-2.16-.61-.68-1.22-1.39-1.77-2.16-.81.2-1.69.4-2.62.45-.18.02-.36.02-.55.02-1.8 0-3.52-.5-5.05-.95l-3.64-1.07c-.99-.29-2.11-.62-3.13-1.28-.95-.61-1.68-1.43-2.32-2.15-.97-1.1-1.97-2.23-2.7-3.64-.9-1.71-1.17-3.52-.77-5.09.51-2.02 2.05-3.49 3.17-4.57 1.07-1.03 2.18-2.09 3.47-2.98 5.13-3.51 11.66-3.28 16.24-2.46 1.72.31 3.1.66 4.37 1.13 1.15.42 2.26.96 3.31 1.6l-.33-.88c-.37-.97-.78-2.06-.86-3.27-.08-1.13.14-2.2.33-3.15.3-1.44.6-2.92 1.28-4.35.83-1.74 2.12-3.04 3.62-3.67 1.91-.8 4.02-.46 5.55-.21 1.46.24 2.97.49 4.47.99 5.88 1.98 9.62 7.35 11.72 11.5.78 1.56 1.33 2.88 1.72 4.17.37 1.22.62 2.48.73 3.76zm-4.24 4.16c.77-1.41 1.38-2.53 1.25-3.89-.09-1.07-.3-2.13-.61-3.16-.34-1.12-.82-2.29-1.53-3.69-1.84-3.65-5.08-8.35-10-10-1.26-.43-2.65-.66-3.99-.88-1.58-.25-2.87-.42-3.91.02-.82.34-1.56 1.12-2.07 2.19-.52 1.1-.79 2.4-1.05 3.66-.17.83-.33 1.62-.28 2.34.06.77.37 1.61.68 2.42l1.33 3.55c.3.81.6 1.59.95 2.32.1-.01.2 0 .29-.01.24-.01.48-.01.72-.01.05 0 .1-.01.14-.01.09 0 .17.01.25.01.29 0 .57.01.85.02.13.01.27.01.4.02.36.02.71.04 1.06.07.05.01.1.01.15.01.41.04.82.09 1.21.14.11.02.22.03.32.05.42.06.83.12 1.22.19h.02c1.71.31 3.1.66 4.37 1.13 1.2.44 2.36 1 3.44 1.67.24.15.46.3.67.47.05.04.1.09.15.14.15.12.29.25.42.38.07.06.13.13.19.2.11.12.22.23.31.35.07.08.13.16.19.25.08.11.17.22.25.33.06.09.11.18.17.27.07.12.14.23.21.34.05.09.1.19.15.28.06.11.13.22.18.34.05.09.1.19.15.29.06.11.11.22.16.33s.1.21.15.32c.03.05.05.11.08.17.21-.35.41-.74.6-1.14.24-.51.5-1 .76-1.48zm-2.55 7.99c.02-.1.04-.2.04-.31 0-.6-.36-1.35-.77-2.13-.26-.5-.5-1-.72-1.5-.67-1.46-1.2-2.62-2.37-3.34a15.72 15.72 0 0 0-2.89-1.4c-1.1-.41-2.33-.72-3.87-1-.54-.09-1.07-.17-1.6-.23-.12-.02-.25-.03-.37-.05-.52-.06-1.04-.1-1.54-.13-.02 0-.03 0-.04-.01-.55-.03-1.1-.04-1.63-.03h-.13c-.46.01-.91.03-1.36.06-.54.05-1.07.1-1.61.19-.51.08-1 .19-1.47.31-.09.02-.17.05-.26.07-.38.11-.76.23-1.12.36-.13.05-.26.09-.39.15-.33.13-.65.27-.96.42-.11.06-.23.11-.34.17-.41.22-.8.45-1.17.7l-.01.01c-1.1.75-2.12 1.73-3.1 2.67-1.16 1.11-2.06 2.04-2.34 3.13-.22.87-.03 1.92.52 2.98.06.11.13.21.19.32l.04.06c.56.93 1.32 1.8 2.06 2.65.54.61 1.1 1.23 1.71 1.63.65.42 1.51.67 2.34.92l3.64 1.06c1.52.45 3.09.91 4.58.82.81-.05 1.64-.26 2.52-.48l3.9-.98c1.07-.27 2.17-.55 3.1-1.02 2.09-1.05 3.62-3.16 4.88-5.07.22-.32.46-.69.54-1zM32.23 30.58c.42-.14.84-.27 1.26-.38-.44-.83-.93-1.49-1.7-1.97-.91-.56-1.89-1.04-2.89-1.41-1.1-.4-2.33-.71-3.87-.99-1.48-.26-3.19-.46-4.97-.46-3.05 0-6.33.59-9.04 2.45-1.09.75-2.11 1.72-3.09 2.67-1.16 1.1-2.06 2.04-2.34 3.13-.22.86-.03 1.92.52 2.97.56 1.08 1.44 2.08 2.29 3.04.56.63 1.09 1.23 1.7 1.63.65.42 1.51.67 2.34.91l3.64 1.07c1.53.45 3.1.9 4.59.82.43-.02.87-.1 1.31-.19v-.02c-.1-.29-.18-.58-.24-.87-.01-.07-.03-.14-.04-.21-.05-.27-.09-.54-.11-.81l-.66.04c-.38.01-.74.03-1.09.03h-.26a10.08 10.08 0 0 1-4.85-1.41c-.71-.43-.94-1.35-.51-2.06.42-.71 1.34-.94 2.05-.52 1.03.62 2.19.96 3.38.99.37 0 .74-.01 1.1-.03l1.41-.07c.69-1.46 1.86-2.6 2.76-3.47 1.07-1.02 2.18-2.08 3.48-2.97.15-.11.31-.2.46-.3a.488.488 0 0 0-.07-.03l-4.15-1.92c-.9-.41-1.83-.84-2.73-.98-1.37-.21-2.88.29-3.85 1.28a1.5 1.5 0 0 1-2.12.02c-.6-.58-.61-1.53-.02-2.12 1.65-1.68 4.12-2.5 6.45-2.14 1.31.2 2.49.74 3.53 1.22l4.15 1.92c.42.19 1.21.56 1.69 1.32.06-.02.11-.04.16-.06l.33-.12z" class="color007da1 svgShape"></path><path fill="#e3fdf2" d="M58.48 30.77c.13 1.36-.48 2.48-1.25 3.89-.26.48-.52.97-.76 1.48-.19.4-.39.79-.6 1.14-.03-.06-.05-.12-.08-.17-.05-.11-.1-.21-.15-.32s-.1-.22-.16-.33c-.05-.1-.1-.2-.15-.29-.05-.12-.12-.23-.18-.34-.05-.09-.1-.19-.15-.28-.07-.11-.14-.22-.21-.34-.06-.09-.11-.18-.17-.27-.08-.11-.17-.22-.25-.33-.06-.09-.12-.17-.19-.25-.09-.12-.2-.23-.31-.35-.06-.07-.12-.14-.19-.2-.13-.13-.27-.26-.42-.38-.05-.05-.1-.1-.15-.14a6.65 6.65 0 0 0-.67-.47c-1.08-.67-2.24-1.23-3.44-1.67-1.27-.47-2.66-.82-4.37-1.13h-.02c-.39-.07-.8-.13-1.22-.19-.1-.02-.21-.03-.32-.05-.39-.05-.8-.1-1.21-.14-.05 0-.1 0-.15-.01-.35-.03-.7-.05-1.06-.07-.13-.01-.27-.01-.4-.02-.28-.01-.56-.02-.85-.02-.08 0-.16-.01-.25-.01-.04 0-.09.01-.14.01-.24 0-.48 0-.72.01-.09.01-.19 0-.29.01-.35-.73-.65-1.51-.95-2.32l-1.33-3.55c-.31-.81-.62-1.65-.68-2.42-.05-.72.11-1.51.28-2.34.26-1.26.53-2.56 1.05-3.66.51-1.07 1.25-1.85 2.07-2.19 1.04-.44 2.33-.27 3.91-.02 1.34.22 2.73.45 3.99.88 4.92 1.65 8.16 6.35 10 10 .71 1.4 1.19 2.57 1.53 3.69.31 1.03.52 2.09.61 3.16zm-2.33.17c.56-1.75.14-3.45-.3-4.56-.52-1.29-1.31-2.42-2-3.42-.77-1.1-1.64-2.35-2.92-3.25-.13-.09-.26-.17-.39-.26-.25-.16-.5-.33-.6-.46-.07-.1-.15-.33-.23-.55-.09-.29-.21-.61-.38-.94-1.25-2.33-4.24-2.53-5.52-2.62a1.52 1.52 0 0 0-1.6 1.4 1.5 1.5 0 0 0 1.4 1.6c1.21.08 2.66.27 3.07 1.04.09.15.14.33.2.5.13.39.3.87.64 1.34.42.57.95.92 1.38 1.2.11.07.21.14.31.21.85.59 1.52 1.56 2.18 2.5.63.91 1.29 1.85 1.67 2.82.37.93.45 1.83.23 2.53-.25.79.18 1.64.97 1.89a1.52 1.52 0 0 0 1.89-.97zm-14.03-3.58c.8-.21 1.28-1.03 1.06-1.83-.21-.8-.47-1.79-1.13-2.65l-.13-.16c-.02-.03-.04-.05-.05-.07 0-.09.02-.23.04-.33.05-.31.1-.69.07-1.12-.07-.82-.81-1.43-1.63-1.37-.82.07-1.43.8-1.36 1.63 0 .07-.03.26-.05.42-.07.49-.18 1.23.17 2 .15.32.34.55.48.73l.08.1c.29.38.46.99.61 1.59.18.67.79 1.11 1.45 1.11.13 0 .26-.01.39-.05z" class="colore3fcfd svgShape"></path><path fill="#00a15e" d="M55.85 26.38c.44 1.11.86 2.81.3 4.56a1.52 1.52 0 0 1-1.89.97c-.79-.25-1.22-1.1-.97-1.89.22-.7.14-1.6-.23-2.53-.38-.97-1.04-1.91-1.67-2.82-.66-.94-1.33-1.91-2.18-2.5-.1-.07-.2-.14-.31-.21-.43-.28-.96-.63-1.38-1.2-.34-.47-.51-.95-.64-1.34-.06-.17-.11-.35-.2-.5-.41-.77-1.86-.96-3.07-1.04a1.5 1.5 0 0 1-1.4-1.6c.06-.83.78-1.44 1.6-1.4 1.28.09 4.27.29 5.52 2.62.17.33.29.65.38.94.08.22.16.45.23.55.1.13.35.3.6.46.13.09.26.17.39.26 1.28.9 2.15 2.15 2.92 3.25.69 1 1.48 2.13 2 3.42z" class="color007da1 svgShape"></path><path fill="#52cc99" d="M54.72 42.34c0 .11-.02.21-.04.31-.08.31-.32.68-.54 1-1.26 1.91-2.79 4.02-4.88 5.07-.93.47-2.03.75-3.1 1.02l-3.9.98c-.88.22-1.71.43-2.52.48-1.49.09-3.06-.37-4.58-.82l-3.64-1.06c-.83-.25-1.69-.5-2.34-.92-.61-.4-1.17-1.02-1.71-1.63-.74-.85-1.5-1.72-2.06-2.65l-.04-.06c-.06-.11-.13-.21-.19-.32-.55-1.06-.74-2.11-.52-2.98.28-1.09 1.18-2.02 2.34-3.13.98-.94 2-1.92 3.1-2.67l.01-.01c.37-.25.76-.48 1.17-.7.11-.06.23-.11.34-.17.31-.15.63-.29.96-.42.13-.06.26-.1.39-.15.36-.13.74-.25 1.12-.36.09-.02.17-.05.26-.07.47-.12.96-.23 1.47-.31.54-.09 1.07-.14 1.61-.19.45-.03.9-.05 1.36-.06h.13c.53-.01 1.08 0 1.63.03.01.01.02.01.04.01.5.03 1.02.07 1.54.13.12.02.25.03.37.05.53.06 1.06.14 1.6.23 1.54.28 2.77.59 3.87 1 1 .36 1.98.84 2.89 1.4 1.17.72 1.7 1.88 2.37 3.34.22.5.46 1 .72 1.5.41.78.77 1.53.77 2.13zm-4.39 3.73c.72-.41.97-1.33.56-2.05s-1.32-.97-2.04-.56l-1.94 1.1c-.37.22-.75.43-1.06.49-.26.06-.63.03-1.02-.01l-.28-.02c-1.8-.14-3.59.04-5.33.54l-.4.11c-.41.13-.79.24-1.13.27-.33.04-.55-.03-.61-.09-.63-.54-1.58-.47-2.12.15-.54.63-.47 1.58.15 2.12.63.54 1.48.83 2.41.83.15 0 .31 0 .46-.02.63-.06 1.2-.23 1.7-.38l.36-.11c1.4-.4 2.83-.54 4.28-.43l.25.02c.55.05 1.18.1 1.86-.03.79-.16 1.45-.53 1.97-.83l1.93-1.1zm-5.88-8.96c.33-.76-.01-1.65-.77-1.98a5.727 5.727 0 0 0-3.91-.27c-.8.23-1.26 1.06-1.03 1.85.22.8 1.06 1.26 1.85 1.03.62-.17 1.3-.12 1.88.13a1.506 1.506 0 0 0 1.98-.76z" class="color42eaf5 svgShape"></path><path fill="#00a15e" d="M50.89 44.02c.41.72.16 1.64-.56 2.05l-1.93 1.1c-.52.3-1.18.67-1.97.83-.68.13-1.31.08-1.86.03l-.25-.02c-1.45-.11-2.88.03-4.28.43l-.36.11c-.5.15-1.07.32-1.7.38-.15.02-.31.02-.46.02-.93 0-1.78-.29-2.41-.83-.62-.54-.69-1.49-.15-2.12.54-.62 1.49-.69 2.12-.15.06.06.28.13.61.09.34-.03.72-.14 1.13-.27l.4-.11c1.74-.5 3.53-.68 5.33-.54l.28.02c.39.04.76.07 1.02.01.31-.06.69-.27 1.06-.49l1.94-1.1c.72-.41 1.63-.16 2.04.56zm-7.21-8.89c.76.33 1.1 1.22.77 1.98a1.506 1.506 0 0 1-1.98.76c-.58-.25-1.26-.3-1.88-.13a1.49 1.49 0 0 1-1.85-1.03c-.23-.79.23-1.62 1.03-1.85 1.29-.37 2.68-.28 3.91.27zm-.5-9.6c.22.8-.26 1.62-1.06 1.83-.13.04-.26.05-.39.05-.66 0-1.27-.44-1.45-1.11-.15-.6-.32-1.21-.61-1.59l-.08-.1c-.14-.18-.33-.41-.48-.73-.35-.77-.24-1.51-.17-2 .02-.16.05-.35.05-.42-.07-.83.54-1.56 1.36-1.63.82-.06 1.56.55 1.63 1.37.03.43-.02.81-.07 1.12-.02.1-.04.24-.04.33.01.02.03.04.05.07l.13.16c.66.86.92 1.85 1.13 2.65z" class="color007da1 svgShape"></path><path fill="#52cc99" d="M33.49 30.2c-.42.11-.84.24-1.26.38l-.33.12c-.05.02-.1.04-.16.06-.48-.76-1.27-1.13-1.69-1.32l-4.15-1.92c-1.04-.48-2.22-1.02-3.53-1.22-2.33-.36-4.8.46-6.45 2.14-.59.59-.58 1.54.02 2.12a1.5 1.5 0 0 0 2.12-.02c.97-.99 2.48-1.49 3.85-1.28.9.14 1.83.57 2.73.98l4.15 1.92c.03.01.05.02.07.03-.15.1-.31.19-.46.3-1.3.89-2.41 1.95-3.48 2.97-.9.87-2.07 2.01-2.76 3.47l-1.41.07c-.36.02-.73.03-1.1.03a6.88 6.88 0 0 1-3.38-.99c-.71-.42-1.63-.19-2.05.52-.43.71-.2 1.63.51 2.06 1.46.87 3.14 1.36 4.85 1.41h.26c.35 0 .71-.02 1.09-.03l.66-.04c.02.27.06.54.11.81.01.07.03.14.04.21.06.29.14.58.24.87v.02c-.44.09-.88.17-1.31.19-1.49.08-3.06-.37-4.59-.82l-3.64-1.07c-.83-.24-1.69-.49-2.34-.91-.61-.4-1.14-1-1.7-1.63-.85-.96-1.73-1.96-2.29-3.04-.55-1.05-.74-2.11-.52-2.97.28-1.09 1.18-2.03 2.34-3.13.98-.95 2-1.92 3.09-2.67 2.71-1.86 5.99-2.45 9.04-2.45 1.78 0 3.49.2 4.97.46 1.54.28 2.77.59 3.87.99 1 .37 1.98.85 2.89 1.41.77.48 1.26 1.14 1.7 1.97zm-20.93 8.1c.67-.5.8-1.44.31-2.1-.5-.67-1.17-.93-1.66-1.12-.13-.06-.27-.11-.39-.18-.29-.17-.57-.7-.8-1.13a1.5 1.5 0 0 0-2.03-.62c-.73.39-1.01 1.29-.62 2.02.38.73.9 1.71 1.93 2.32.29.17.57.28.81.38.14.05.34.14.35.12.3.4.75.6 1.21.6.31 0 .62-.09.89-.29z" class="color42eaf5 svgShape"></path><path fill="#00a15e" d="M12.87 36.2c.49.66.36 1.6-.31 2.1-.27.2-.58.29-.89.29-.46 0-.91-.2-1.21-.6-.01.02-.21-.07-.35-.12-.24-.1-.52-.21-.81-.38-1.03-.61-1.55-1.59-1.93-2.32-.39-.73-.11-1.63.62-2.02a1.5 1.5 0 0 1 2.03.62c.23.43.51.96.8 1.13.12.07.26.12.39.18.49.19 1.16.45 1.66 1.12z" class="color007da1 svgShape"></path></svg>