<svg xmlns="http://www.w3.org/2000/svg" viewBox="0 0 64 64" id="PrayerBeads"><path fill="#00a15e" d="M58.91 25.3a4.43 4.43 0 0 1-.91 3.29c-.25.33-.55.6-.88.84.54.91.76 2.01.53 3.13a4.42 4.42 0 0 1-2.07 2.91c.76 1.35.83 3.04-.01 4.47-.57.97-1.45 1.64-2.44 1.97.07.36.11.74.08 1.12a4.479 4.479 0 0 1-1.54 3.06c-.59.5-1.27.82-1.98.97.01.09.01.19.01.28l-2.97.14c0-.19-.04-.37-.11-.55-.11-.26-.28-.46-.5-.62a.435.435 0 0 0-.07-.06c-.23-.15-.51-.23-.79-.23-.18 0-.37.03-.55.1-.43.18-.73.53-.85.94l-2.89-.75c.36-1.3 1.28-2.42 2.62-2.97.24-.09.48-.16.73-.21-.03-.25-.04-.5-.02-.75.09-1.19.63-2.28 1.53-3.06.45-.38.97-.67 1.51-.85-.19-1.05-.02-2.12.53-3.05.39-.67.94-1.17 1.55-1.54-.52-.92-.74-2.01-.51-3.12.23-1.12.87-2.04 1.72-2.67-.3-.5-.51-1.07-.58-1.68-.14-1.1.14-2.18.76-3.08-.44-.38-.82-.85-1.09-1.41-.48-.99-.56-2.1-.26-3.15-.54-.22-1.05-.55-1.48-1-.8-.8-1.21-1.85-1.27-2.9-.58-.04-1.17-.18-1.72-.46-1.03-.51-1.75-1.37-2.14-2.35L45.64 11c.13.31.36.57.69.73.72.36 1.6.06 1.96-.66.11-.21.16-.43.16-.65l2.97-.22c1.06.06 2.1.48 2.91 1.29.84.85 1.29 1.98 1.29 3.17-.01.41-.08.81-.19 1.19.98.41 1.83 1.14 2.33 2.17.52 1.07.59 2.28.2 3.41-.13.39-.33.74-.56 1.07.83.72 1.37 1.7 1.51 2.8zm-3.28 1.45c.24-.31.35-.69.3-1.08s-.24-.73-.55-.97c-.26-.21-.58-.31-.9-.31-.06 0-.12 0-.18.01h-.01c-.38.05-.73.24-.97.55-.24.31-.35.7-.3 1.09.1.8.84 1.37 1.64 1.27.39-.05.73-.25.97-.56zm-.5-6.3a1.474 1.474 0 0 0-1.39-1.95c-.22 0-.43.05-.64.15-.35.17-.62.47-.74.84-.13.37-.11.77.06 1.12a1.48 1.48 0 0 0 1.96.68c.35-.17.62-.47.75-.84zm-.41 11.51c.16-.8-.35-1.57-1.14-1.74a1.482 1.482 0 0 0-1.74 1.14c-.16.8.35 1.57 1.14 1.74.79.16 1.57-.35 1.74-1.14zm-1.74 6.46c.41-.69.18-1.59-.52-2-.23-.14-.49-.21-.74-.21-.5 0-.99.26-1.26.73-.2.34-.26.73-.16 1.11.07.25.21.45.38.63.24.12.47.26.69.42.61.15 1.28-.1 1.61-.68zm-.36-23.78c0-.39-.15-.76-.43-1.04-.27-.27-.64-.43-1.03-.43h-.01c-.39 0-.75.15-1.03.42-.57.57-.58 1.5-.01 2.08a1.47 1.47 0 0 0 2.51-1.03zm-2.4 28.17v-.08c0-.36-.12-.71-.36-.98l-.03-.03c-.12-.06-.25-.12-.37-.19s-.22-.16-.33-.23c-.12-.04-.25-.06-.38-.06-.34 0-.68.12-.95.36a1.453 1.453 0 0 0-.16 2.06c.53.62 1.46.68 2.07.15.3-.25.48-.61.51-1z" class="color007da1 svgShape"></path><path fill="#e3fdf2" d="M55.93 25.67c.05.39-.06.77-.3 1.08-.24.31-.58.51-.97.56-.8.1-1.54-.47-1.64-1.27-.05-.39.06-.78.3-1.09.24-.31.59-.5.97-.55h.01c.06-.01.12-.01.18-.01.32 0 .64.1.9.31.31.24.5.58.55.97zm-.87-6.34c.17.35.19.75.07 1.12-.13.37-.4.67-.75.84-.73.35-1.6.04-1.96-.68-.17-.35-.19-.75-.06-1.12.12-.37.39-.67.74-.84.21-.1.42-.15.64-.15.54 0 1.07.31 1.32.83zm-1.48 10.89c.79.17 1.3.94 1.14 1.74-.17.79-.95 1.3-1.74 1.14a1.48 1.48 0 0 1-1.14-1.74 1.482 1.482 0 0 1 1.74-1.14zm-1.12 6.2c.7.41.93 1.31.52 2-.33.58-1 .83-1.61.68-.22-.16-.45-.3-.69-.42-.17-.18-.31-.38-.38-.63-.1-.38-.04-.77.16-1.11.27-.47.76-.73 1.26-.73.25 0 .51.07.74.21zm-.27-22.82a1.46 1.46 0 0 1-.01 2.08c-.57.57-1.51.56-2.07-.01-.57-.58-.56-1.51.01-2.08.28-.27.64-.42 1.03-.42h.01c.39 0 .76.16 1.03.43z" class="colore3fcfd svgShape"></path><path fill="#00a15e" d="m51.42 10.2-2.97.22c0-.16-.03-.31-.08-.47-.12-.37-.38-.67-.73-.84-.35-.18-.75-.21-1.12-.08-.37.12-.67.38-.85.73-.2.41-.2.86-.03 1.24l-2.79 1.06c-.38.1-.77.17-1.17.17a4.395 4.395 0 0 1-3.38-1.57c-.48.33-1.04.57-1.64.69a4.481 4.481 0 0 1-3.13-.55c-.35.47-.8.87-1.33 1.17-.69.4-1.44.6-2.21.6-.31 0-.62-.04-.92-.11-.18.55-.48 1.08-.89 1.54-.73.83-1.72 1.33-2.81 1.46l-.44-2.95c.39-.03.74-.2 1-.5.26-.29.39-.67.37-1.06a1.47 1.47 0 0 0-1.46-1.37l.12-2.97c.27 0 .54.03.8.09.34-1.01 1.01-1.91 2-2.48 1.45-.83 3.16-.74 4.5.06a4.39 4.39 0 0 1 2.69-1.7c1.17-.22 2.36.02 3.35.68.34.23.63.52.89.82a4.47 4.47 0 0 1 3.09-.74c1.65.23 2.95 1.34 3.53 2.79 1.06-.3 2.18-.2 3.17.29 1.06.54 1.86 1.45 2.24 2.58.13.39.18.79.2 1.2zm-8.29-2.23c.11-.8-.45-1.55-1.25-1.65-.8-.11-1.55.45-1.66 1.25-.1.8.46 1.54 1.26 1.65.79.1 1.54-.45 1.65-1.25zm-7.05.44c.8-.16 1.31-.93 1.16-1.72-.07-.39-.29-.72-.62-.94-.24-.16-.53-.25-.82-.25-.09 0-.18.01-.28.03-.38.07-.72.29-.93.62-.17.24-.25.53-.25.83 0 .09 0 .18.02.27.08.38.3.71.62.93.33.22.72.3 1.1.23zm-4.68.07c.1-.37.05-.77-.15-1.11-.27-.47-.76-.74-1.27-.74-.25 0-.5.07-.73.2-.7.4-.94 1.3-.54 2 .19.34.51.58.89.68.37.1.77.06 1.11-.14.34-.19.58-.51.69-.89z" class="color007da1 svgShape"></path><path fill="#e3fdf2" d="M50.22 42.73v.08c-.03.39-.21.75-.51 1a1.462 1.462 0 1 1-1.91-2.21c.27-.24.61-.36.95-.36.13 0 .26.02.38.06.11.07.21.16.33.23.12.07.25.13.37.19l.03.03c.24.27.36.62.36.98z" class="colore3fcfd svgShape"></path><path fill="#00a15e" d="M49.7 47.34c.06 1.82-.98 3.57-2.77 4.28a4.4 4.4 0 0 1-1.67.33c-.18 0-.35-.03-.53-.05-.36 1.29-1.27 2.42-2.61 2.96-.55.22-1.11.33-1.67.33-.48 0-.95-.09-1.39-.23-.59.31-1.2.53-1.8.67.19.5.31 1.03.31 1.6 0 2.46-2 4.46-4.47 4.46a4.46 4.46 0 0 1-3.12-1.28h-.03c-4.11.18-22.88 1.02-25.91 1.09H4c-.81 0-1.48-.65-1.5-1.46-.02-.83.64-1.52 1.46-1.54 1.73-.04 8.87-.34 15.32-.62C10.7 54.04 3.4 47.17 2.97 46.76a1.5 1.5 0 0 1 2.06-2.18c.14.13 12.88 12.12 23.62 12.8 0-.05-.01-.1-.01-.15 0-1.82 1.09-3.38 2.65-4.08-.39-.27-.8-.48-1.13-.63-.47.17-.96.27-1.48.27-2.47 0-4.47-2-4.47-4.46 0-.1.02-.19.03-.29-.3-.04-.61-.1-.91-.2a4.425 4.425 0 0 1-2.57-2.25 4.16 4.16 0 0 1-.42-2.18l2.96.2c0 .23.05.45.15.65.18.35.48.62.85.74a1.455 1.455 0 0 0 1.86-.92c.07-.21.09-.42.07-.63l2.97-.18c.02.21.02.43.01.65 2.21.26 3.93 2.13 3.93 4.41 0 .76-.2 1.46-.54 2.08.89.55 1.86 1.36 2.43 2.51.43-.02.94-.07 1.44-.19-.06-.11-.12-.22-.17-.33-.92-2.29.19-4.9 2.47-5.82.72-.29 1.48-.36 2.2-.27l2.89.75c-.07.26-.08.54-.01.81.19.22.36.47.5.73.11.09.21.18.34.23.36.16.76.16 1.12.01.36-.14.65-.42.8-.78.08-.19.12-.38.12-.58l2.97-.14zm-8.71 4.74c.7-.28 1.05-1.03.86-1.74-.19-.23-.37-.49-.51-.76-.26-.2-.57-.33-.9-.33a1.474 1.474 0 0 0-1.36 2.02c.31.75 1.16 1.11 1.91.81zm-6.42 5.15c0-.81-.66-1.47-1.47-1.47-.8 0-1.46.66-1.46 1.47 0 .26.07.51.2.73.03.03.05.07.07.11a1.464 1.464 0 0 0 2.66-.84zm-4.43-8.9a1.464 1.464 0 1 0-2.93 0c0 .81.66 1.46 1.47 1.46s1.46-.65 1.46-1.46z" class="color007da1 svgShape"></path><path fill="#e3fdf2" d="M48.37 9.95c.05.16.08.31.08.47 0 .22-.05.44-.16.65-.36.72-1.24 1.02-1.96.66a1.4 1.4 0 0 1-.69-.73c-.17-.38-.17-.83.03-1.24.18-.35.48-.61.85-.73.37-.13.77-.1 1.12.08.35.17.61.47.73.84zm-1.75 36.98c.07.18.11.36.11.55 0 .2-.04.39-.12.58-.15.36-.44.64-.8.78-.36.15-.76.15-1.12-.01-.13-.05-.23-.14-.34-.23-.14-.26-.31-.51-.5-.73-.07-.27-.06-.55.01-.81.12-.41.42-.76.85-.94.18-.07.37-.1.55-.1.28 0 .56.08.79.23.03.02.05.04.07.06.22.16.39.36.5.62zM41.88 6.32c.8.1 1.36.85 1.25 1.65-.11.8-.86 1.35-1.65 1.25a1.48 1.48 0 0 1-1.26-1.65c.11-.8.86-1.36 1.66-1.25zm-.03 44.02c.19.71-.16 1.46-.86 1.74-.75.3-1.6-.06-1.91-.81a1.474 1.474 0 0 1 1.36-2.02c.33 0 .64.13.9.33.14.27.32.53.51.76zM37.24 6.69c.15.79-.36 1.56-1.16 1.72-.38.07-.77-.01-1.1-.23-.32-.22-.54-.55-.62-.93-.02-.09-.02-.18-.02-.27 0-.3.08-.59.25-.83.21-.33.55-.55.93-.62.1-.02.19-.03.28-.03.29 0 .58.09.82.25.33.22.55.55.62.94z" class="colore3fcfd svgShape"></path><path fill="#52cc99" d="M33.1 55.76a1.464 1.464 0 1 1-1.19 2.31.413.413 0 0 0-.07-.11c-.13-.22-.2-.47-.2-.73 0-.81.66-1.47 1.46-1.47z" class="color42eaf5 svgShape"></path><path fill="#e3fdf2" d="M31.25 7.37c.2.34.25.74.15 1.11-.11.38-.35.7-.69.89-.34.2-.74.24-1.11.14-.38-.1-.7-.34-.89-.68-.4-.7-.16-1.6.54-2 .23-.13.48-.2.73-.2.51 0 1 .27 1.27.74z" class="colore3fcfd svgShape"></path><path fill="#00a15e" d="m29.2 43.27-2.97.18c-.02-.17-.07-.33-.15-.49a1.46 1.46 0 0 0-.84-.74c-.16-.05-.31-.07-.47-.07a1.468 1.468 0 0 0-1.47 1.46l-2.96-.2c0-.31.05-.62.13-.92a4.432 4.432 0 0 1-3.31-3.73c-.1-.8.03-1.59.33-2.31a4.437 4.437 0 0 1-2.12-4.72c.08-.4.23-.78.41-1.13-.92-.61-1.59-1.5-1.87-2.57-.31-1.16-.15-2.36.45-3.39.21-.36.47-.66.76-.94a4.458 4.458 0 0 1-.95-3.04c.08-1.19.62-2.28 1.52-3.06.31-.27.66-.48 1.02-.65-.36-1.04-.35-2.16.08-3.18.64-1.54 2.05-2.51 3.6-2.69-.01-1.1.36-2.16 1.1-2.99a4.379 4.379 0 0 1 3.47-1.48l-.12 2.97h-.1c-.39.03-.74.2-1 .49-.26.3-.39.68-.37 1.07.03.39.2.74.49 1h.01c.29.26.67.39 1.06.37l.44 2.95c.01.59-.1 1.19-.34 1.75-.42 1.02-1.2 1.81-2.19 2.29.2.56.28 1.15.24 1.76a4.467 4.467 0 0 1-1.33 2.88c.36.46.63 1 .79 1.59.28 1.07.15 2.17-.34 3.15.49.32.92.74 1.26 1.25.87 1.3.96 2.89.39 4.22.16.1.32.18.46.29a4.473 4.473 0 0 1 1.6 4.68c.1.02.2.03.3.06 1.13.39 2.04 1.19 2.57 2.26.25.52.39 1.07.42 1.63zm-6.45-4.19c.5-.65.38-1.57-.26-2.06-.27-.2-.58-.3-.9-.3-.05 0-.11.01-.16.02-.19.07-.38.14-.58.19-.16.09-.3.21-.42.36-.24.31-.34.69-.29 1.08.05.39.25.74.56.97.64.5 1.56.37 2.05-.26zm-.49-23.03c.15-.36.16-.76.01-1.12-.15-.36-.43-.64-.8-.79-.18-.08-.37-.12-.56-.12-.57 0-1.12.34-1.35.9-.15.37-.15.76-.01 1.13.15.36.43.64.8.79.36.15.75.15 1.12.01.36-.15.64-.43.79-.8zM21.18 32.9c.08-.39 0-.78-.21-1.1a1.473 1.473 0 0 0-1.23-.66c-.28 0-.56.09-.8.25-.33.22-.55.55-.63.93-.08.38 0 .78.22 1.1.32.48.87.7 1.4.64.17-.07.35-.13.52-.18a.37.37 0 0 0 .11-.05c.33-.22.55-.55.62-.93zm-1.09-11.84c.03-.39-.1-.77-.36-1.06-.26-.3-.61-.47-1-.5-.4-.04-.77.1-1.07.36-.29.26-.47.61-.5 1-.05.81.56 1.51 1.37 1.56.8.05 1.5-.55 1.56-1.36zm-.6 6.55c.2-.34.25-.73.15-1.11-.17-.65-.77-1.09-1.42-1.09a1.465 1.465 0 0 0-1.41 1.84c.2.79 1.01 1.25 1.79 1.04.38-.1.7-.34.89-.68z" class="color007da1 svgShape"></path><path fill="#e3fdf2" d="M28.68 46.86c.81 0 1.46.66 1.46 1.47 0 .81-.65 1.46-1.46 1.46a1.464 1.464 0 1 1 0-2.93zM26.3 10.95c.02.39-.11.77-.37 1.06-.26.3-.61.47-1 .5-.39.02-.77-.11-1.06-.37h-.01c-.29-.26-.46-.61-.49-1-.02-.39.11-.77.37-1.07.26-.29.61-.46 1-.49h.1a1.465 1.465 0 0 1 1.46 1.37zm-.07 32.5a1.48 1.48 0 0 1-.81 1.48c-.36.17-.75.2-1.12.07-.37-.12-.67-.39-.85-.74a1.443 1.443 0 0 1-.07-1.12c.21-.61.78-.99 1.39-.99.16 0 .31.02.47.07.37.13.67.39.84.74.08.16.13.32.15.49zm-3.74-6.43c.64.49.76 1.41.26 2.06-.49.63-1.41.76-2.05.26-.31-.23-.51-.58-.56-.97-.05-.39.05-.77.29-1.08.12-.15.26-.27.42-.36.2-.05.39-.12.58-.19.05-.01.11-.02.16-.02.32 0 .63.1.9.3zm-.22-22.09c.15.36.14.76-.01 1.12-.15.37-.43.65-.79.8-.37.14-.76.14-1.12-.01-.37-.15-.65-.43-.8-.79-.14-.37-.14-.76.01-1.13.23-.56.78-.9 1.35-.9.19 0 .38.04.56.12.37.15.65.43.8.79zm-1.3 16.87c.21.32.29.71.21 1.1-.07.38-.29.71-.62.93a.37.37 0 0 1-.11.05c-.17.05-.35.11-.52.18-.53.06-1.08-.16-1.4-.64-.22-.32-.3-.72-.22-1.1.08-.38.3-.71.63-.93a1.453 1.453 0 0 1 1.1-.22c.38.08.71.3.93.63zM19.73 20c.26.29.39.67.36 1.06-.06.81-.76 1.41-1.56 1.36-.81-.05-1.42-.75-1.37-1.56.03-.39.21-.74.5-1 .3-.26.67-.4 1.07-.36.39.03.74.2 1 .5zm-.09 6.5c.1.38.05.77-.15 1.11-.19.34-.51.58-.89.68-.78.21-1.59-.25-1.79-1.04a1.465 1.465 0 0 1 1.41-1.84c.65 0 1.25.44 1.42 1.09z" class="colore3fcfd svgShape"></path></svg>