<svg xmlns="http://www.w3.org/2000/svg" viewBox="0 0 64 64" id="DoNotEat"><path fill="#00a15e" d="M61.1 17.35c.28.3.43.71.4 1.13l-1.3 17.97v.01l-1.7 23.65c-.06.78-.71 1.39-1.5 1.39H41.66c-.41.12-.82.19-1.23.19H8.5c-2.52 0-4.56-2.04-4.56-4.56v-3.56c0-.83.67-1.5 1.5-1.5h27.48l-.07-1.08H7.84c-2.15 0-3.9-1.75-3.9-3.9s1.75-3.9 3.9-3.9h24.44l-.06-.84H5.44c-.83 0-1.5-.67-1.5-1.5s.67-1.5 1.5-1.5h26.57l-.07-.94H5.44c-.83 0-1.5-.67-1.5-1.5 0-8.97 9.21-16.27 20.53-16.27 2.13 0 4.22.26 6.25.78l-.22-2.94a1.504 1.504 0 0 1 1.5-1.61h28c.42 0 .81.17 1.1.48zm-3.74 16.78 1.03-14.26H33.61l.25 3.51.22 3.02.59 8.19c1.7.9 6.56 3.02 10.52.47 4.47-2.89 9.44-1.87 12.17-.93zM55.6 58.5l1.53-21.24c-1.87-.76-6.47-2.16-10.32.32-1.96 1.26-4.01 1.71-5.94 1.71-2.3 0-4.41-.63-5.95-1.27l.47 6.56.1 1.37.91 12.55h19.2zm-22.2.19-.26-3.62H6.94v2.06c0 .86.7 1.56 1.56 1.56h24.9zm-.77-10.7-.08-1.15-.05-.65H7.84c-.5 0-.9.4-.9.9s.4.9.9.9h24.79zm-.91-12.58-.28-3.95-.5-6.87c-2.07-.63-4.25-.95-6.47-.95-9 0-16.43 5.15-17.42 11.77h24.67z" class="color007da1 svgShape"></path><path fill="#e3fdf2" d="M57.13 37.26 55.6 58.5H36.4l-.91-12.55-.1-1.37-.47-6.56c1.54.64 3.65 1.27 5.95 1.27 1.93 0 3.98-.45 5.94-1.71 3.85-2.48 8.45-1.08 10.32-.32zM33.14 55.07l.26 3.62H8.5c-.86 0-1.56-.7-1.56-1.56v-2.06h26.2z" class="colore3fcfd svgShape"></path><path fill="#52cc99" d="m32.55 46.84.08 1.15H7.84c-.5 0-.9-.4-.9-.9s.4-.9.9-.9H32.5l.05.65z" class="color42eaf5 svgShape"></path><path fill="#e3fdf2" d="m31.44 31.46.28 3.95H7.05c.99-6.62 8.42-11.77 17.42-11.77 2.22 0 4.4.32 6.47.95l.5 6.87z" class="colore3fcfd svgShape"></path><path fill="#00a15e" d="M15.54 2.94c.59.59.59 1.53 0 2.12l-4.18 4.18 4.16 4.16c.59.59.59 1.53 0 2.12-.29.29-.68.44-1.06.44s-.77-.15-1.06-.44l-4.16-4.16-4.16 4.16c-.29.29-.68.44-1.06.44s-.77-.15-1.06-.44a1.49 1.49 0 0 1 0-2.12l4.16-4.16-4.18-4.18c-.59-.59-.59-1.53 0-2.12s1.53-.59 2.12 0l4.18 4.18 4.18-4.18a1.49 1.49 0 0 1 2.12 0z" class="color007da1 svgShape"></path></svg>