<svg xmlns="http://www.w3.org/2000/svg" data-name="Layer 1" viewBox="0 0 32 32" id="Quran"><path fill="#66b292" d="M29.86 22.67v5.45a1.009 1.009 0 0 1-1.27.97l-10.53-2.92-2.04-.57zM16 25.6l-2.04.57-10.53 2.92a1.009 1.009 0 0 1-1.27-.97v-5.46z" class="colorb28966 svgShape"></path><path fill="#478b6f" d="M2.16 22.66 16 25.6l-2.04.57-11.8-2.51v-1zM29.86 22.67v1l-11.8 2.5-2.04-.57 13.84-2.93z" class="color8b6847 svgShape"></path><path fill="#7bbca1" d="M.52 21.501V6.436a1 1 0 0 1 1.211-.977l14.289 3.09 14.289-3.09a1 1 0 0 1 1.211.977v15.077a1 1 0 0 1-.793.979l-14.707 3.11L1.312 22.48a1 1 0 0 1-.792-.978Z" class="colorbc9a7b svgShape"></path><path fill="#66b292" d="M27.733 20.794 16 23.61 4.267 20.794a1 1 0 0 1-.767-.972V4.878a1 1 0 0 1 1.233-.972L16 6.61l11.267-2.704a1 1 0 0 1 1.233.972v14.944a1 1 0 0 1-.767.972Z" class="colorb28966 svgShape"></path><path fill="#e0e2e1" d="M26.733 19.794 16 22.61 4.267 17.794c-.45-.108-.767 1.49-.767 1.028V3.878a1 1 0 0 1 1.233-.972L16 5.61l11.267-2.704a1 1 0 0 1 1.233.972l-1 14.944a1 1 0 0 1-.767.972Z" class="colore0e0e2 svgShape"></path><path fill="#d8dad9" d="M26.733 19.794 16 22.61v-17l11.267-2.704a1 1 0 0 1 1.233.972V16.61l-1 2.212a1 1 0 0 1-.767.972Z" class="colord9d8da svgShape"></path><path fill="#52cc99" d="M4.267 19.794 16 22.61v-.635a3 3 0 0 0-2.3-2.917L3.5 16.61v2.212a1 1 0 0 0 .767.972ZM16 22.61l11.733-2.816a1 1 0 0 0 .767-.972V16.61l-10.2 2.448a3 3 0 0 0-2.3 2.917zm2.804-8.742a.5.5 0 0 1-.121-.985l6.946-1.737a.5.5 0 0 1 .242.971l-6.946 1.737a.52.52 0 0 1-.121.014zm0-3a.5.5 0 0 1-.121-.985l6.946-1.737a.5.5 0 0 1 .242.971l-6.946 1.737a.52.52 0 0 1-.121.014zm0-3a.5.5 0 0 1-.121-.985l6.946-1.737a.5.5 0 0 1 .242.971l-6.946 1.737a.52.52 0 0 1-.121.014zm0 9a.5.5 0 0 1-.121-.985l6.946-1.737a.5.5 0 0 1 .242.971l-6.946 1.737a.52.52 0 0 1-.121.014zm-6.054-3a.52.52 0 0 1-.121-.014l-6.946-1.737a.5.5 0 0 1 .242-.97l6.946 1.736a.5.5 0 0 1-.12.985zm0-3a.52.52 0 0 1-.121-.014L5.683 9.117a.5.5 0 0 1 .242-.97l6.946 1.736a.5.5 0 0 1-.12.985zm0-3a.52.52 0 0 1-.121-.014L5.683 6.117a.5.5 0 0 1 .242-.97l6.946 1.736a.5.5 0 0 1-.12.985zm0 9a.52.52 0 0 1-.121-.014l-6.946-1.737a.5.5 0 0 1 .242-.97l6.946 1.736a.5.5 0 0 1-.12.985z" class="colorafaeb3 svgShape"></path></svg>