<svg xmlns="http://www.w3.org/2000/svg" viewBox="0 0 64 64" id="Hijab"><path fill="#00a15e" d="M61.5 59.34V60c0 .83-.67 1.5-1.5 1.5H4c-.83 0-1.5-.67-1.5-1.5v-.66c0-4.87 2.47-9.33 6.53-11.94-.2-.95-.19-1.95.07-2.93 1.05-4.05 4.26-16.39 5.23-27.81.82-9.73 9.75-14.16 17.69-14.16h.01c7.93 0 16.83 4.43 17.64 14.16.96 11.37 4.18 23.74 5.23 27.81.26.98.27 1.98.07 2.94 4.06 2.6 6.53 7.06 6.53 11.93zm-18.54-.84h15.51c-.25-3.38-2.01-6.43-4.78-8.35-.13.15-.26.3-.4.44-.02.02-.03.04-.04.05-.27.28-.57.57-.88.87-.07.06-.14.13-.21.2-.24.23-.49.46-.75.7-.12.11-.24.22-.36.32-.23.21-.46.42-.71.63-.14.12-.29.25-.44.37-.23.2-.48.4-.72.6-.17.14-.33.27-.5.4-.25.2-.51.4-.78.6-.17.12-.34.25-.51.38-.29.21-.59.42-.89.63-.16.11-.32.22-.49.33-.43.29-.88.58-1.33.85l-.15.09c-.48.29-.97.57-1.46.83-.04.02-.07.04-.11.06zm8.89-11.07c.29-.69.34-1.46.15-2.21-1.07-4.12-4.34-16.69-5.31-28.31C46.02 9.03 38.85 5.5 32.03 5.5h-.01c-6.62 0-14.04 3.57-14.71 11.41-.69 8.22-2.51 16.85-3.9 22.68 1.32 1.36 6.96 6.85 14.86 10.1.77.32 1.13 1.2.82 1.96a1.504 1.504 0 0 1-1.96.82c-6.88-2.84-12.04-7.14-14.55-9.5-.23.9-.43 1.67-.58 2.25-.19.75-.13 1.52.15 2.21.01.02.03.04.04.06.08.19.18.36.29.53.01.02.02.03.03.05.11.17.24.32.38.46.97.99 2.47 2.41 4.34 3.87 3.8 2.96 9.14 6.1 14.77 6.1 5.69 0 11.08-3.2 14.9-6.2a43.99 43.99 0 0 0 4.21-3.77c.14-.14.27-.29.38-.46.01-.02.02-.03.03-.05.11-.16.21-.34.29-.53.01-.02.03-.04.04-.06zM5.53 58.5h15.51c-.04-.02-.07-.04-.11-.06-.49-.26-.98-.54-1.46-.82a.864.864 0 0 0-.16-.1c-.45-.28-.89-.56-1.32-.85-.17-.11-.33-.23-.5-.34-.29-.2-.59-.41-.87-.62-.18-.13-.36-.26-.53-.39-.26-.2-.52-.39-.77-.59-.17-.13-.34-.27-.51-.41-.24-.19-.47-.38-.7-.58-.16-.13-.31-.26-.46-.39-.24-.2-.46-.4-.68-.6-.13-.11-.26-.23-.39-.35-.24-.22-.47-.43-.69-.65-.09-.08-.19-.17-.27-.26-.31-.29-.6-.58-.87-.85 0-.01-.01-.01-.01-.02-.15-.15-.29-.31-.43-.47a11.141 11.141 0 0 0-4.78 8.35z" class="color007da1 svgShape"></path><path fill="#e3fdf2" d="M58.47 58.5H42.96c.04-.02.07-.04.11-.06.49-.26.98-.54 1.46-.83l.15-.09c.45-.27.9-.56 1.33-.85.17-.11.33-.22.49-.33.3-.21.6-.42.89-.63.17-.13.34-.26.51-.38.27-.2.53-.4.78-.6.17-.13.33-.26.5-.4.24-.2.49-.4.72-.6.15-.12.3-.25.44-.37.25-.21.48-.42.71-.63.12-.1.24-.21.36-.32.26-.24.51-.47.75-.7.07-.07.14-.14.21-.2.31-.3.61-.59.88-.87.01-.01.02-.03.04-.05.14-.14.27-.29.4-.44 2.77 1.92 4.53 4.97 4.78 8.35z" class="colore3fcfd svgShape"></path><path fill="#52cc99" d="M52 45.22c.19.75.14 1.52-.15 2.21-.01.02-.03.04-.04.06-.08.19-.18.37-.29.53-.01.02-.02.03-.03.05-.11.17-.24.32-.38.46-.95.97-2.4 2.35-4.21 3.77-3.82 3-9.21 6.2-14.9 6.2-5.63 0-10.97-3.14-14.77-6.1a44.728 44.728 0 0 1-4.34-3.87c-.14-.14-.27-.29-.38-.46-.01-.02-.02-.03-.03-.05-.11-.17-.21-.34-.29-.53-.01-.02-.03-.04-.04-.06-.28-.69-.34-1.46-.15-2.21.15-.58.35-1.35.58-2.25 2.51 2.36 7.67 6.66 14.55 9.5a1.504 1.504 0 0 0 1.96-.82c.31-.76-.05-1.64-.82-1.96-7.9-3.25-13.54-8.74-14.86-10.1 1.39-5.83 3.21-14.46 3.9-22.68C17.98 9.07 25.4 5.5 32.02 5.5h.01c6.82 0 13.99 3.53 14.66 11.41.97 11.62 4.24 24.19 5.31 28.31zm-3.1-1.76a1.498 1.498 0 0 0-2.68-1.34c-.02.04-2.05 4.02-7.54 7.72-.68.46-.87 1.39-.4 2.08a1.49 1.49 0 0 0 2.08.4c6.14-4.13 8.45-8.67 8.54-8.86zm-5-11.49V21.77c0-6.22-5.34-11.27-11.9-11.27s-11.9 5.05-11.9 11.27V31.97c0 6.36 8.18 12.32 11.9 12.32s11.9-5.96 11.9-12.32z" class="color42eaf5 svgShape"></path><path fill="#00a15e" d="M48.23 41.45c.74.37 1.04 1.27.67 2.01-.09.19-2.4 4.73-8.54 8.86a1.49 1.49 0 0 1-2.08-.4c-.47-.69-.28-1.62.4-2.08 5.49-3.7 7.52-7.68 7.54-7.72.37-.74 1.27-1.04 2.01-.67zM43.9 24.74v7.23c0 6.36-8.18 12.32-11.9 12.32s-11.9-5.96-11.9-12.32V21.77c0-6.22 5.34-11.27 11.9-11.27s11.9 5.05 11.9 11.27v2.97zm-3 7.23v-7.23c0-1.67-1.49-3.03-3.32-3.03H26.42c-1.83 0-3.32 1.36-3.32 3.03v7.23c0 4.47 6.67 9.32 8.9 9.32s8.9-4.85 8.9-9.32zm-.5-12.62c.04.02.09.04.13.06C39.44 16 36.03 13.5 32 13.5s-7.44 2.5-8.53 5.91c.04-.02.09-.04.13-.06.15-.07.31-.14.47-.2.07-.03.15-.06.23-.08a5.66 5.66 0 0 1 .69-.2c.16-.03.32-.06.48-.08.07-.01.15-.03.22-.04.24-.02.48-.04.73-.04h11.16c.25 0 .49.02.73.04.07.01.15.03.22.04.16.02.32.05.48.08a5.66 5.66 0 0 1 .69.2c.08.02.16.05.23.08.16.06.32.13.47.2z" class="color007da1 svgShape"></path><path fill="#e3fdf2" d="M40.9 24.74v7.23c0 4.47-6.67 9.32-8.9 9.32s-8.9-4.85-8.9-9.32v-7.23c0-1.67 1.49-3.03 3.32-3.03h11.16c1.83 0 3.32 1.36 3.32 3.03z" class="colore3fcfd svgShape"></path><path fill="#52cc99" d="M40.53 19.41c-.04-.02-.09-.04-.13-.06-.15-.07-.31-.14-.47-.2-.07-.03-.15-.06-.23-.08a5.66 5.66 0 0 0-.69-.2c-.16-.03-.32-.06-.48-.08-.07-.01-.15-.03-.22-.04-.24-.02-.48-.04-.73-.04H26.42c-.25 0-.49.02-.73.04-.07.01-.15.03-.22.04-.16.02-.32.05-.48.08-.09.02-.17.04-.25.06-.15.04-.3.09-.44.14-.08.02-.16.05-.23.08-.16.06-.32.13-.47.2-.04.02-.09.04-.13.06C24.56 16 27.97 13.5 32 13.5s7.44 2.5 8.53 5.91z" class="color42eaf5 svgShape"></path><path fill="#e3fdf2" d="M21.04 58.5H5.53c.25-3.38 2.01-6.43 4.78-8.35.14.16.28.32.43.47 0 .01.01.01.01.02.27.27.56.56.87.85.08.09.18.18.27.26.22.22.45.43.69.65.13.12.26.24.39.35.22.2.44.4.68.6.15.13.3.26.46.39.23.2.46.39.7.58.17.14.34.28.51.41.25.2.51.39.77.59.17.13.35.26.53.39.28.21.58.42.87.62.17.11.33.23.5.34.43.29.87.57 1.32.85.06.03.11.06.16.1.48.28.97.56 1.46.82.04.02.07.04.11.06z" class="colore3fcfd svgShape"></path></svg>