<svg xmlns="http://www.w3.org/2000/svg" viewBox="0 0 64 64" id="Mosque"><path fill="#00a15e" d="M58.4 59.54c0 .18-.02.36-.04.54-.09.75-.75 1.42-1.51 1.42H7.15c-.76 0-1.4-.57-1.49-1.33a4.22 4.22 0 0 1-.06-.63c0-1.57.67-2.99 1.74-3.99-1.07-1-1.74-2.41-1.74-3.98 0-2.81 2.12-5.13 4.84-5.44-2.2-2.48-4.84-6.63-4.84-12.3 0-9.34 10.16-13.63 17.57-16.77 2.07-.88 4.18-1.77 5.69-2.64a6.37 6.37 0 0 1-3.24-5.54c0-3.52 2.86-6.38 6.38-6.38.83 0 1.5.67 1.5 1.5s-.67 1.5-1.5 1.5c-1.86 0-3.38 1.52-3.38 3.38s1.52 3.38 3.38 3.38 3.38-1.52 3.38-3.38c0-.83.67-1.5 1.5-1.5s1.5.67 1.5 1.5a6.37 6.37 0 0 1-3.24 5.54c1.51.87 3.62 1.76 5.69 2.64 7.41 3.14 17.57 7.43 17.57 16.77 0 5.67-2.64 9.82-4.84 12.3 2.72.31 4.84 2.63 4.84 5.44 0 1.57-.67 2.98-1.74 3.98 1.07 1 1.74 2.42 1.74 3.99zm-9.12-13.45c1.34-1.09 6.12-5.42 6.12-12.26 0-7.35-8.73-11.04-15.74-14.01-3.24-1.37-5.96-2.52-7.66-3.9-1.7 1.38-4.42 2.53-7.66 3.9C17.33 22.79 8.6 26.48 8.6 33.83c0 6.84 4.78 11.17 6.12 12.26h34.56zM8.83 58.5h46.34a2.472 2.472 0 0 0-2.25-1.44H11.08c-.99 0-1.85.59-2.25 1.44zm46.57-6.93a2.48 2.48 0 0 0-2.48-2.48H11.08a2.48 2.48 0 0 0-2.48 2.48c0 1.36 1.11 2.47 2.48 2.47h41.84c1.37 0 2.48-1.11 2.48-2.47z" class="color007da1 svgShape"></path><path fill="#52cc99" d="M55.4 33.83c0 6.84-4.78 11.17-6.12 12.26H14.72C13.38 45 8.6 40.67 8.6 33.83c0-7.35 8.73-11.04 15.74-14.01 3.24-1.37 5.96-2.52 7.66-3.9 1.7 1.38 4.42 2.53 7.66 3.9 7.01 2.97 15.74 6.66 15.74 14.01zm-6.39 9.83c3.41-3.32 5.81-8.69 3.5-13.19-1.94-3.77-6.22-5.62-9.67-7.09l-.1-.05a1.49 1.49 0 0 0-1.97.78c-.33.77.02 1.65.78 1.97l.11.05c3 1.29 6.73 2.9 8.18 5.71 1.62 3.14-.3 7.12-2.92 9.67a1.5 1.5 0 0 0-.03 2.12c.3.3.69.46 1.08.46.37 0 .75-.15 1.04-.43zM37.93 22.89c.32-.76-.03-1.64-.79-1.96-1.78-.76-3.18-1.43-4.41-2.12-.72-.41-1.63-.15-2.04.57-.4.73-.15 1.64.58 2.05 1.32.74 2.81 1.46 4.69 2.26a1.492 1.492 0 0 0 1.97-.8zM55.17 58.5H8.83c.4-.85 1.26-1.44 2.25-1.44h41.84c1 0 1.86.59 2.25 1.44z" class="color42eaf5 svgShape"></path><path fill="#e3fdf2" d="M52.92 49.09a2.48 2.48 0 0 1 2.48 2.48c0 1.36-1.11 2.47-2.48 2.47H11.08c-1.37 0-2.48-1.11-2.48-2.47a2.48 2.48 0 0 1 2.48-2.48h41.84z" class="colore3fcfd svgShape"></path><path fill="#00a15e" d="M52.51 30.47c2.31 4.5-.09 9.87-3.5 13.19-.29.28-.67.43-1.04.43-.39 0-.78-.16-1.08-.46a1.5 1.5 0 0 1 .03-2.12c2.62-2.55 4.54-6.53 2.92-9.67-1.45-2.81-5.18-4.42-8.18-5.71l-.11-.05a1.49 1.49 0 0 1-.78-1.97 1.49 1.49 0 0 1 1.97-.78l.1.05c3.45 1.47 7.73 3.32 9.67 7.09zm-15.37-9.54c.76.32 1.11 1.2.79 1.96a1.492 1.492 0 0 1-1.97.8c-1.88-.8-3.37-1.52-4.69-2.26-.73-.41-.98-1.32-.58-2.05.41-.72 1.32-.98 2.04-.57 1.23.69 2.63 1.36 4.41 2.12z" class="color007da1 svgShape"></path></svg>