<svg xmlns="http://www.w3.org/2000/svg" viewBox="0 0 64 64" id="Mat"><path fill="#00a15e" d="M49.36 55.52V60c0 .83-.67 1.5-1.5 1.5s-1.5-.67-1.5-1.5v-2.98h-4.93V60c0 .83-.67 1.5-1.5 1.5s-1.5-.67-1.5-1.5v-2.98H33.5V60c0 .83-.67 1.5-1.5 1.5s-1.5-.67-1.5-1.5v-2.98h-4.93V60c0 .83-.67 1.5-1.5 1.5s-1.5-.67-1.5-1.5v-2.98h-4.93V60c0 .83-.67 1.5-1.5 1.5s-1.5-.67-1.5-1.5V4c0-.83.67-1.5 1.5-1.5s1.5.67 1.5 1.5v2.98h4.93V4c0-.83.67-1.5 1.5-1.5s1.5.67 1.5 1.5v2.98h4.93V4c0-.83.67-1.5 1.5-1.5s1.5.67 1.5 1.5v2.98h4.93V4c0-.83.67-1.5 1.5-1.5s1.5.67 1.5 1.5v2.98h4.93V4c0-.83.67-1.5 1.5-1.5s1.5.67 1.5 1.5V55.52zm-3-1.5V9.98H17.64v44.04h28.72z" class="color007da1 svgShape"></path><path fill="#e3fdf2" d="M46.36 48.91v5.11H17.64v-5.11h1.68c0 .82.67 1.5 1.5 1.5h22.36c.83 0 1.5-.68 1.5-1.5h1.68zm0-38.93v38.93h-1.68V24.42c0-.83-.67-1.5-1.5-1.5h-1.51c-.52-4.18-3.19-5.64-5.58-6.94-1.05-.58-2.15-1.18-3.1-2.02-.57-.49-1.41-.49-1.98 0-.95.84-2.05 1.44-3.1 2.02-2.39 1.3-5.06 2.76-5.58 6.94h-1.51c-.83 0-1.5.67-1.5 1.5v24.49h-1.68V9.98h28.72z" class="colore3fcfd svgShape"></path><path fill="#00a15e" d="M44.68 24.42v24.49c0 .82-.67 1.5-1.5 1.5H20.82c-.83 0-1.5-.68-1.5-1.5V24.42c0-.83.67-1.5 1.5-1.5h1.51c.52-4.18 3.19-5.64 5.58-6.94 1.05-.58 2.15-1.18 3.1-2.02.57-.49 1.41-.49 1.98 0 .95.84 2.05 1.44 3.1 2.02 2.39 1.3 5.06 2.76 5.58 6.94h1.51c.83 0 1.5.67 1.5 1.5zm-3 22.99V25.92h-1.43c-.82 0-1.5-.67-1.5-1.5 0-3.57-1.54-4.41-4.1-5.81-.83-.46-1.75-.96-2.65-1.61-.9.65-1.82 1.15-2.65 1.61-2.56 1.4-4.1 2.24-4.1 5.81 0 .83-.68 1.5-1.5 1.5h-1.43v21.49h19.36z" class="color007da1 svgShape"></path><path fill="#52cc99" d="M41.68 25.92v21.49H22.32V25.92h1.43c.82 0 1.5-.67 1.5-1.5 0-3.57 1.54-4.41 4.1-5.81.83-.46 1.75-.96 2.65-1.61.9.65 1.82 1.15 2.65 1.61 2.56 1.4 4.1 2.24 4.1 5.81 0 .83.68 1.5 1.5 1.5h1.43z" class="color42eaf5 svgShape"></path></svg>