<svg xmlns="http://www.w3.org/2000/svg" viewBox="0 0 64 64" id="Moon"><path fill="#00a15e" d="M61.06 44.35c.49.49.58 1.25.22 1.84-5.79 9.59-15.93 15.31-27.11 15.31C16.71 61.5 2.5 47.29 2.5 29.83c0-11.18 5.72-21.32 15.31-27.11a1.498 1.498 0 0 1 2.06 2.06 28.606 28.606 0 0 0-4.11 14.8c0 15.8 12.86 28.66 28.66 28.66 5.23 0 10.35-1.42 14.8-4.11.6-.36 1.35-.26 1.84.22zM34.17 58.5c8.12 0 15.63-3.33 20.99-9.13a31.565 31.565 0 0 1-10.74 1.87c-17.46 0-31.66-14.2-31.66-31.66 0-3.68.63-7.31 1.87-10.74C8.83 14.2 5.5 21.71 5.5 29.83c0 15.81 12.86 28.67 28.67 28.67z" class="color007da1 svgShape"></path><path fill="#00a15e" d="M55.71 19.34c.2.62-.02 1.29-.55 1.67l-7.83 5.7 2.99 9.21c.2.62-.02 1.29-.55 1.67-.26.2-.57.29-.88.29-.31 0-.62-.09-.88-.29l-7.83-5.69-7.84 5.69c-.53.39-1.24.39-1.76 0-.53-.38-.75-1.05-.55-1.67l3-9.21-7.84-5.7a1.48 1.48 0 0 1-.54-1.67c.2-.62.77-1.04 1.42-1.04h9.69l2.99-9.21c.2-.62.78-1.04 1.43-1.04s1.22.42 1.42 1.04l3 9.21h9.68c.65 0 1.23.42 1.43 1.04zm-11.03 5.58 4.98-3.62h-6.15c-.65 0-1.23-.42-1.43-1.04l-1.9-5.85-1.91 5.85c-.2.62-.77 1.04-1.42 1.04h-6.16l4.98 3.62c.53.38.75 1.06.55 1.68l-1.91 5.85 4.98-3.62a1.537 1.537 0 0 1 1.77 0l4.98 3.62-1.9-5.85c-.2-.62.02-1.3.54-1.68z" class="color007da1 svgShape"></path><path fill="#52cc99" d="m49.66 21.3-4.98 3.62a1.51 1.51 0 0 0-.54 1.68l1.9 5.85-4.98-3.62a1.537 1.537 0 0 0-1.77 0l-4.98 3.62 1.91-5.85a1.5 1.5 0 0 0-.55-1.68l-4.98-3.62h6.16c.65 0 1.22-.42 1.42-1.04l1.91-5.85 1.9 5.85c.2.62.78 1.04 1.43 1.04h6.15z" class="color42eaf5 svgShape"></path><path fill="#e3fdf2" d="M55.16 49.37c-5.36 5.8-12.87 9.13-20.99 9.13C18.36 58.5 5.5 45.64 5.5 29.83c0-8.12 3.33-15.63 9.13-20.99a31.565 31.565 0 0 0-1.87 10.74c0 17.46 14.2 31.66 31.66 31.66 3.68 0 7.31-.63 10.74-1.87z" class="colore3fcfd svgShape"></path></svg>