<svg xmlns="http://www.w3.org/2000/svg" viewBox="0 0 64 64" id="Mosque"><path fill="#00a15e" d="M61.5 32v27.48c0 .83-.67 1.5-1.5 1.5H4c-.83 0-1.5-.67-1.5-1.5V26.72c0-.23.06-.45.15-.65-.67-7.12 1.09-9.36 2.79-11.52.72-.9 1.4-1.75 1.87-3.06.21-.59.78-.99 1.41-.99s1.2.4 1.41.99c.47 1.31 1.15 2.16 1.87 3.06 1.7 2.16 3.46 4.39 2.79 11.52.09.2.15.41.15.65v3.78h2.78c-1.69-11.58 2.98-15.18 7.52-18.65 1.99-1.52 3.87-2.98 5.26-5.13V4c0-.83.67-1.5 1.5-1.5s1.5.67 1.5 1.5v2.72c1.39 2.15 3.27 3.61 5.26 5.13 4.54 3.47 9.21 7.07 7.52 18.65h2.78v-3.78c0-.24.06-.45.15-.65-.67-7.13 1.09-9.36 2.79-11.52.72-.9 1.4-1.75 1.87-3.06.21-.59.78-.99 1.41-.99.63 0 1.2.4 1.41.99.47 1.31 1.15 2.16 1.87 3.06 1.7 2.16 3.46 4.4 2.79 11.52.09.2.15.42.15.65V32zm-3 25.98V33.5h-6.44v24.48h6.44zm0-27.48v-2.28h-6.44v2.28h6.44zm-.08-5.28c.43-5.47-.8-7.02-2.21-8.8-.3-.38-.62-.78-.93-1.22-.31.44-.62.84-.92 1.22-1.42 1.78-2.65 3.33-2.21 8.8h6.27zm-9.36 32.76V37.94H14.94v20.04h9.3V45.77c0-.82.67-1.5 1.5-1.5h.29c.48-2.23 2.06-3.09 3.36-3.8.59-.32 1.14-.63 1.62-1.05.29-.24.64-.37.99-.37s.7.13.99.37c.48.42 1.03.73 1.62 1.05 1.3.71 2.88 1.57 3.36 3.8h.29c.83 0 1.5.68 1.5 1.5v12.21h9.3zm0-23.04V33.5H14.94v1.44h34.12zm-5.8-4.44c1.62-10.2-2.07-13.02-6.32-16.26-1.7-1.31-3.45-2.65-4.94-4.47-1.49 1.82-3.24 3.16-4.94 4.47-4.25 3.24-7.94 6.06-6.32 16.26h22.52zm-6.5 27.48V47.27h-.14c-.83 0-1.5-.67-1.5-1.5 0-1.6-.57-1.92-1.95-2.67-.37-.2-.77-.42-1.17-.68-.4.26-.8.48-1.17.68-1.38.75-1.95 1.07-1.95 2.67 0 .83-.67 1.5-1.5 1.5h-.14v10.71h9.52zm-24.82 0V33.5H5.5v24.48h6.44zm0-27.48v-2.28H5.5v2.28h6.44zm-.09-5.28c.44-5.47-.79-7.02-2.21-8.8-.3-.38-.61-.78-.92-1.22-.31.44-.63.84-.93 1.22-1.41 1.78-2.64 3.33-2.21 8.8h6.27z" class="color007da1 svgShape"></path><path fill="#e3fdf2" d="M52.06 33.5h6.44v24.48h-6.44zM52.06 28.22h6.44v2.28h-6.44z" class="colore3fcfd svgShape"></path><path fill="#52cc99" d="M56.21 16.42c1.41 1.78 2.64 3.33 2.21 8.8h-6.27c-.44-5.47.79-7.02 2.21-8.8.3-.38.61-.78.92-1.22.31.44.63.84.93 1.22z" class="color42eaf5 svgShape"></path><path fill="#e3fdf2" d="M49.06 37.94v20.04h-9.3V45.77c0-.82-.67-1.5-1.5-1.5h-.29c-.48-2.23-2.06-3.09-3.36-3.8-.59-.32-1.14-.63-1.62-1.05a1.56 1.56 0 0 0-.99-.37v-1.11h17.06zM49.06 33.5v1.44H14.94V33.5h29.58z" class="colore3fcfd svgShape"></path><path fill="#52cc99" d="M36.94 14.24c4.25 3.24 7.94 6.06 6.32 16.26H20.74c-1.62-10.2 2.07-13.02 6.32-16.26 1.7-1.31 3.45-2.65 4.94-4.47 1.49 1.82 3.24 3.16 4.94 4.47zM40.68 26c.01-5.13-2.45-7-5.56-9.38-.66-.51-1.6-.38-2.1.28-.51.66-.38 1.6.28 2.1 3.01 2.3 4.38 3.35 4.38 7-.01.83.67 1.5 1.49 1.5h.01c.82 0 1.49-.67 1.5-1.5z" class="color42eaf5 svgShape"></path><path fill="#00a15e" d="M35.12 16.62c3.11 2.38 5.57 4.25 5.56 9.38-.01.83-.68 1.5-1.5 1.5h-.01c-.82 0-1.5-.67-1.49-1.5 0-3.65-1.37-4.7-4.38-7-.66-.5-.79-1.44-.28-2.1.5-.66 1.44-.79 2.1-.28z" class="color007da1 svgShape"></path><path fill="#52cc99" d="M36.76 47.27v10.71h-9.52V47.27h.14c.83 0 1.5-.67 1.5-1.5 0-1.6.57-1.92 1.95-2.67.37-.2.77-.42 1.17-.68.4.26.8.48 1.17.68 1.38.75 1.95 1.07 1.95 2.67 0 .83.67 1.5 1.5 1.5h.14z" class="color42eaf5 svgShape"></path><path fill="#e3fdf2" d="M32 37.94v1.11c-.35 0-.7.13-.99.37-.48.42-1.03.73-1.62 1.05-1.3.71-2.88 1.57-3.36 3.8h-.29c-.83 0-1.5.68-1.5 1.5v12.21h-9.3V37.94H32zM5.5 33.5h6.44v24.48H5.5zM5.5 28.22h6.44v2.28H5.5z" class="colore3fcfd svgShape"></path><path fill="#52cc99" d="M9.64 16.42c1.42 1.78 2.65 3.33 2.21 8.8H5.58c-.43-5.47.8-7.02 2.21-8.8.3-.38.62-.78.93-1.22.31.44.62.84.92 1.22z" class="color42eaf5 svgShape"></path></svg>