<svg xmlns="http://www.w3.org/2000/svg" fill-rule="evenodd" stroke-linejoin="round" stroke-miterlimit="2" clip-rule="evenodd" viewBox="0 0 64 64" id="audio"><g transform="translate(-3028 -8)" fill="#52cc99" class="color000000 svgShape"><path d="M3088.65,24.007C3088.65,24 3088.65,23.994 3088.65,23.987C3088.07,20.522 3085.29,17.844 3081.81,17.386C3081.8,17.385 3081.8,17.385 3081.8,17.385C3074.53,16.456 3067.27,16 3060,16C3052.73,16 3045.47,16.455 3038.2,17.385C3038.2,17.385 3038.2,17.386 3038.2,17.386C3034.71,17.845 3031.93,20.526 3031.35,23.994C3031.35,24 3031.35,24.006 3031.35,24.012C3030.45,29.689 3030,32.829 3030,40C3030,47.282 3030.77,50.424 3031.8,56.205C3031.8,56.221 3031.81,56.237 3031.81,56.253C3032.49,59.602 3035.23,62.147 3038.62,62.584C3038.62,62.584 3038.62,62.584 3038.62,62.585C3045.9,63.511 3053.18,64 3060.46,64C3067.7,64 3074.94,63.515 3082.18,62.607C3082.19,62.607 3082.19,62.607 3082.19,62.606C3085.8,62.143 3088.64,59.299 3089.11,55.688C3089.85,50.183 3090,47.04 3090,40.001C3090,32.805 3089.55,29.659 3088.65,24.007ZM3066,28L3066,52C3066,53.104 3066.9,54 3068,54C3069.1,54 3070,53.104 3070,52L3070,28C3070,26.896 3069.1,26 3068,26C3066.9,26 3066,26.896 3066,28ZM3050,30L3050,50C3050,51.104 3050.9,52 3052,52C3053.1,52 3054,51.104 3054,50L3054,30C3054,28.896 3053.1,28 3052,28C3050.9,28 3050,28.896 3050,30ZM3058,34.5L3058,45.5C3058,46.604 3058.9,47.5 3060,47.5C3061.1,47.5 3062,46.604 3062,45.5L3062,34.5C3062,33.396 3061.1,32.5 3060,32.5C3058.9,32.5 3058,33.396 3058,34.5ZM3074,36L3074,44C3074,45.104 3074.9,46 3076,46C3077.1,46 3078,45.104 3078,44L3078,36C3078,34.896 3077.1,34 3076,34C3074.9,34 3074,34.896 3074,36ZM3042,36L3042,44C3042,45.104 3042.9,46 3044,46C3045.1,46 3046,45.104 3046,44L3046,36C3046,34.896 3045.1,34 3044,34C3042.9,34 3042,34.896 3042,36Z" fill="#52cc99" class="color000000 svgShape"></path></g></svg>