<svg xmlns="http://www.w3.org/2000/svg" viewBox="0 0 64 64" id="Praying"><path fill="#00a15e" d="M61.5 20.75v8.81c0 1.51-.62 2.97-1.69 4.03l-4.83 4.76-.11 1.55h.72c.83 0 1.5.67 1.5 1.5V52c0 .83-.67 1.5-1.5 1.5H36.52c-.83 0-1.5-.67-1.5-1.5V41.4c0-.83.67-1.5 1.5-1.5h.71l-.02-.24c-.04-.62-.39-1.15-.93-1.39a5.257 5.257 0 0 1-3.07-4.76v-16.3c0-2.12 1.61-3.87 3.65-3.98.36-.02.72.01 1.07.09.14-1.99 1.68-3.59 3.64-3.69.35-.02.71.01 1.05.09v-.13c0-1.96 1.6-3.56 3.57-3.56h.57c1.75 0 3.2 1.26 3.51 2.91.29-.07.6-.11.91-.11 2.12 0 3.85 1.73 3.85 3.85v6.17c.98-.78 2.18-1.17 3.47-1.19 1.65.03 3 1.41 3 3.09zm-3 8.81v-8.81c-.86-.1-1.62.29-2.09.96-.52.77-.49 2.21-.46 4.04l.01.32c0 1-.73 1.81-1.66 1.96-.1.02-.2.03-.31.03-2.23 0-4.04 1.82-4.04 4.04 0 .83-.67 1.5-1.5 1.5s-1.5-.67-1.5-1.5c0-3.2 2.15-5.9 5.08-6.76V12.68a.85.85 0 1 0-1.7 0v2.1c0 .06 0 .12.02.18.04.2.04.41 0 .61-.02.06-.02.11-.02.17v5.63c0 .83-.67 1.5-1.5 1.5s-1.5-.67-1.5-1.5V9.59c0-.31-.26-.56-.57-.56h-.57c-.31 0-.57.25-.57.56v11.78c0 .83-.67 1.5-1.5 1.5s-1.5-.67-1.5-1.5v-7.89c0-.32-.16-.52-.26-.62a.854.854 0 0 0-.64-.23c-.43.02-.8.47-.8.98v7.76c0 .83-.67 1.5-1.5 1.5s-1.5-.67-1.5-1.5v-4.29c0-.32-.17-.53-.27-.62a.845.845 0 0 0-.63-.23c-.44.02-.81.47-.81.98v16.3c0 .87.52 1.66 1.31 2.02 1.54.7 2.57 2.2 2.69 3.92l.03.45h11.63l.16-2.32c.02-.37.18-.71.44-.97l5.24-5.16c.5-.49.79-1.18.79-1.89zM54.09 50.5v-7.6H38.02v7.6h16.07z" class="color007da1 svgShape"></path><path fill="#e3fdf2" d="M58.5 20.75v8.81c0 .71-.29 1.4-.79 1.89l-5.24 5.16c-.26.26-.42.6-.44.97l-.16 2.32H40.24l-.03-.45c-.12-1.72-1.15-3.22-2.69-3.92a2.231 2.231 0 0 1-1.31-2.02v-16.3c0-.51.37-.96.81-.98.32-.02.53.14.63.23.1.09.27.3.27.62v4.29c0 .83.67 1.5 1.5 1.5s1.5-.67 1.5-1.5v-7.76c0-.51.37-.96.8-.98.33-.02.54.14.64.23.1.1.26.3.26.62v7.89c0 .83.67 1.5 1.5 1.5s1.5-.67 1.5-1.5V9.59c0-.31.26-.56.57-.56h.57c.31 0 .57.25.57.56v11.78c0 .83.67 1.5 1.5 1.5s1.5-.67 1.5-1.5v-5.63c0-.06 0-.11.02-.17.04-.2.04-.41 0-.61-.02-.06-.02-.12-.02-.18v-2.1a.85.85 0 1 1 1.7 0v12.66c-2.93.86-5.08 3.56-5.08 6.76 0 .83.67 1.5 1.5 1.5s1.5-.67 1.5-1.5c0-2.22 1.81-4.04 4.04-4.04.11 0 .21-.01.31-.03.93-.15 1.66-.96 1.66-1.96l-.01-.32c-.03-1.83-.06-3.27.46-4.04.47-.67 1.23-1.06 2.09-.96z" class="colore3fcfd svgShape"></path><path fill="#52cc99" d="M54.09 42.9v7.6H38.02v-7.6h15.25z" class="color42eaf5 svgShape"></path><path fill="#00a15e" d="M31.02 17.21v16.3c0 .25-.02.51-.06.76L28 33.83c.01-.1.02-.21.02-.32v-16.3c0-.51-.37-.96-.81-.98a.863.863 0 0 0-.63.23c-.1.09-.27.3-.27.62v4.29c0 .83-.67 1.5-1.5 1.5s-1.5-.67-1.5-1.5v-7.76c0-.51-.36-.96-.8-.98a.81.81 0 0 0-.63.23c-.1.1-.27.3-.27.62v7.89c0 .83-.67 1.5-1.5 1.5s-1.5-.67-1.5-1.5V9.59a.56.56 0 0 0-.56-.56h-.58a.56.56 0 0 0-.56.56v11.78c0 .83-.68 1.5-1.5 1.5-.83 0-1.5-.67-1.5-1.5v-5.63c0-.05-.01-.11-.02-.17-.05-.2-.04-.41 0-.61.01-.06.02-.12.02-.18v-2.1c0-.47-.39-.85-.86-.85s-.85.38-.85.85v12.66c2.93.86 5.08 3.56 5.08 6.76 0 .83-.67 1.5-1.5 1.5s-1.5-.67-1.5-1.5c0-2.22-1.81-4.04-4.04-4.04-.11 0-.21-.01-.3-.03-.94-.15-1.66-.95-1.66-1.93v-.35c.03-1.83.06-3.27-.47-4.06a2.435 2.435 0 0 0-1.97-1.03l.12-2.99c1.21.05 2.33.45 3.24 1.17v-6.16a3.858 3.858 0 0 1 4.77-3.74c.3-1.65 1.76-2.91 3.5-2.91h.58c1.96 0 3.56 1.6 3.56 3.56v.13c.34-.08.7-.11 1.06-.09 1.95.1 3.5 1.7 3.63 3.69.35-.08.71-.11 1.07-.09 2.05.11 3.65 1.86 3.65 3.98z" class="color007da1 svgShape"></path><path fill="#00a15e" d="m28 33.83 2.96.44a5.238 5.238 0 0 1-3.01 4c-.53.24-.89.77-.93 1.39l-.02.24h.71c.83 0 1.5.67 1.5 1.5V52c0 .83-.67 1.5-1.5 1.5H8.64c-.83 0-1.5-.67-1.5-1.5V41.4c0-.83.67-1.5 1.5-1.5h.72l-.11-1.55-4.83-4.76a5.72 5.72 0 0 1-1.69-4.03v-8.81c0-1.68 1.35-3.06 3-3.09.08 0 .16 0 .23.01l-.12 2.99h-.06l-.05 8.9c0 .71.29 1.4.79 1.89l5.24 5.16c.26.26.42.6.45.97l.15 2.32h11.63l.03-.45c.12-1.72 1.15-3.22 2.69-3.92.7-.31 1.18-.96 1.29-1.7zM26.21 50.5v-7.6H10.14v7.6h16.07z" class="color007da1 svgShape"></path><path fill="#e3fdf2" d="M28.02 17.21v16.3c0 .11-.01.22-.02.32-.11.74-.59 1.39-1.29 1.7-1.54.7-2.57 2.2-2.69 3.92l-.03.45H12.36l-.15-2.32c-.03-.37-.19-.71-.45-.97l-5.24-5.16c-.5-.49-.79-1.18-.79-1.89l.05-8.9h.06c.79 0 1.52.4 1.97 1.03.53.79.5 2.23.47 4.06v.35c0 .98.72 1.78 1.66 1.93.09.02.19.03.3.03 2.23 0 4.04 1.82 4.04 4.04 0 .83.67 1.5 1.5 1.5s1.5-.67 1.5-1.5c0-3.2-2.15-5.9-5.08-6.76V12.68c0-.47.38-.85.85-.85s.86.38.86.85v2.1c0 .06-.01.12-.02.18-.04.2-.05.41 0 .61.01.06.02.12.02.17v5.63c0 .83.67 1.5 1.5 1.5.82 0 1.5-.67 1.5-1.5V9.59c0-.31.25-.56.56-.56h.58c.31 0 .56.25.56.56v11.78c0 .83.67 1.5 1.5 1.5s1.5-.67 1.5-1.5v-7.89c0-.32.17-.52.27-.62.09-.09.3-.25.63-.23.44.02.8.47.8.98v7.76c0 .83.67 1.5 1.5 1.5s1.5-.67 1.5-1.5v-4.29c0-.32.17-.53.27-.62.1-.09.32-.25.63-.23.44.02.81.47.81.98z" class="colore3fcfd svgShape"></path><path fill="#52cc99" d="M26.21 42.9v7.6H10.14v-7.6H25.4z" class="color42eaf5 svgShape"></path></svg>