<svg xmlns="http://www.w3.org/2000/svg" viewBox="0 0 64 64" id="Clock"><path fill="#00a15e" d="M32 2.5c16.27 0 29.5 13.23 29.5 29.5S48.27 61.5 32 61.5 2.5 48.27 2.5 32 15.73 2.5 32 2.5zM58.5 32C58.5 17.39 46.61 5.5 32 5.5S5.5 17.39 5.5 32 17.39 58.5 32 58.5 58.5 46.61 58.5 32z" class="color007da1 svgShape"></path><path fill="#e3fdf2" d="M52.56 30.5h-3.02c-.83 0-1.5.67-1.5 1.5s.67 1.5 1.5 1.5h3.02c-.73 10.18-8.88 18.33-19.06 19.06v-3.02c0-.83-.67-1.5-1.5-1.5s-1.5.67-1.5 1.5v3.02c-10.18-.73-18.33-8.88-19.06-19.06h3.02c.83 0 1.5-.67 1.5-1.5s-.67-1.5-1.5-1.5h-3.02c.73-10.18 8.88-18.33 19.06-19.06v3.02c0 .83.67 1.5 1.5 1.5s1.5-.67 1.5-1.5v-3.02c10.18.73 18.33 8.88 19.06 19.06zM38.24 32c0-.83-.67-1.5-1.5-1.5h-4.13l-8.9-8.74a1.5 1.5 0 0 0-2.1 2.14l9.34 9.17s.01 0 .01.01c.14.13.3.23.47.31.01 0 .02 0 .04.01.16.06.34.1.53.1h4.74c.83 0 1.5-.67 1.5-1.5z" class="colore3fcfd svgShape"></path><path fill="#52cc99" d="M32 5.5c14.61 0 26.5 11.89 26.5 26.5S46.61 58.5 32 58.5 5.5 46.61 5.5 32 17.39 5.5 32 5.5zM55.64 32c0-13.04-10.6-23.64-23.64-23.64S8.36 18.96 8.36 32 18.96 55.64 32 55.64 55.64 45.04 55.64 32z" class="color42eaf5 svgShape"></path><path fill="#00a15e" d="M32 8.36c13.04 0 23.64 10.6 23.64 23.64S45.04 55.64 32 55.64 8.36 45.04 8.36 32 18.96 8.36 32 8.36zM49.54 30.5h3.02c-.73-10.18-8.88-18.33-19.06-19.06v3.02c0 .83-.67 1.5-1.5 1.5s-1.5-.67-1.5-1.5v-3.02c-10.18.73-18.33 8.88-19.06 19.06h3.02c.83 0 1.5.67 1.5 1.5s-.67 1.5-1.5 1.5h-3.02c.73 10.18 8.88 18.33 19.06 19.06v-3.02c0-.83.67-1.5 1.5-1.5s1.5.67 1.5 1.5v3.02c10.18-.73 18.33-8.88 19.06-19.06h-3.02c-.83 0-1.5-.67-1.5-1.5s.67-1.5 1.5-1.5z" class="color007da1 svgShape"></path><path fill="#00a15e" d="M36.74 30.5c.83 0 1.5.67 1.5 1.5s-.67 1.5-1.5 1.5H32c-.19 0-.37-.04-.53-.1-.02-.01-.03-.01-.04-.01-.17-.08-.33-.18-.47-.31 0-.01-.01-.01-.01-.01l-9.34-9.17a1.5 1.5 0 0 1 2.1-2.14l8.9 8.74h4.13z" class="color007da1 svgShape"></path></svg>