<svg xmlns="http://www.w3.org/2000/svg" viewBox="0 0 64 64" id="Kabba"><path fill="#00a15e" d="M61.5 45.35v7.76c0 .69-.47 1.29-1.14 1.45l-28 6.9h-.02c-.11.02-.22.04-.34.04-.12 0-.23-.02-.34-.04h-.02l-28-6.9c-.67-.16-1.14-.76-1.14-1.45V10.89c0-.69.47-1.29 1.14-1.45l28-6.9h.02c.11-.02.22-.04.34-.04.12 0 .23.02.34.04h.02l28 6.9c.67.16 1.14.76 1.14 1.45v34.46zm-3 6.58v-4.66l-25 6.15v4.67l25-6.16zm0-7.75V21.52l-25-2.83v31.64l25-6.15zm0-25.67v-1.44l-25-4.39v2.99l25 2.84zm0-4.48v-1.96l-25-6.16v3.72l25 4.4zm-28 44.06v-4.67l-25-6.15v4.66l25 6.16zm0-7.76V18.69l-25 2.83v22.66l4.08 1V31.93c0-.41.17-.81.47-1.09.29-.28.68-.42 1.1-.41l11.88.59c.8.04 1.43.69 1.43 1.49v16.33l6.04 1.49zm0-34.66v-2.99l-25 4.39v1.44l25-2.84zm0-6.04V5.91l-25 6.16v1.96l25-4.4zm-9.04 38.48V33.94l-8.88-.44v12.42l6.34 1.56 2.54.63z" class="color007da1 svgShape"></path><path fill="#52cc99" d="M58.5 47.27v4.66l-25 6.16v-4.67zM58.5 21.52v22.66l-25 6.15V18.69z" class="color42eaf5 svgShape"></path><path fill="#e3fdf2" d="M58.5 17.07v1.44l-25-2.84v-2.99z" class="colore3fcfd svgShape"></path><path fill="#52cc99" d="M58.5 12.07v1.96l-25-4.4V5.91zM30.5 53.42v4.67l-25-6.16v-4.66zM30.5 18.69v31.64l-6.04-1.49V32.51c0-.8-.63-1.45-1.43-1.49l-11.88-.59c-.42-.01-.81.13-1.1.41-.3.28-.47.68-.47 1.09v13.25l-4.08-1V21.52l25-2.83z" class="color42eaf5 svgShape"></path><path fill="#e3fdf2" d="M30.5 12.68v2.99l-25 2.84v-1.44z" class="colore3fcfd svgShape"></path><path fill="#52cc99" d="M30.5 5.91v3.72l-25 4.4v-1.96z" class="color42eaf5 svgShape"></path><path fill="#e3fdf2" d="M21.46 33.94v14.17l-2.54-.63-6.34-1.56V33.5z" class="colore3fcfd svgShape"></path></svg>