<svg xmlns="http://www.w3.org/2000/svg" width="64" height="64" viewBox="0 0 16.933 16.933" id="qibla"><path d="m 32,3.6660156 c -11.711104,0 -21.25,9.3279334 -21.25,20.7792964 0,16.822904 19.845313,27.588518 20.695312,28.03711 C 31.622395,52.57691 31.811111,52.625 32,52.625 c 0.188889,0 0.377606,-0.04809 0.554688,-0.142578 C 33.404687,52.03383 53.25,41.268216 53.25,24.445312 53.25,12.993949 43.711105,3.6660156 32,3.6660156 Z m 0,2.3613282 c 10.412493,0 18.888672,8.2652132 18.888672,18.4179682 C 50.888672,38.352235 35.187498,48.220738 32,50.074219 28.824308,48.232568 13.111328,38.352235 13.111328,24.445312 13.111328,14.292557 21.587506,6.0273438 32,6.0273438 Z m -0.0059,6.4902342 c -0.159375,0 -0.319228,0.03265 -0.466797,0.09766 l -9.810547,4.214844 c -0.436805,0.188977 -0.71875,0.613686 -0.71875,1.085938 v 12.419922 c 0,0.472214 0.281943,0.897036 0.71875,1.085937 l 9.810547,4.214844 c 0.153471,0.05896 0.319184,0.09375 0.472656,0.09375 0.153471,0 0.319271,-0.03328 0.460938,-0.09375 l 9.810546,-4.214844 c 0.436808,-0.188976 0.71875,-0.613723 0.71875,-1.085937 V 17.916016 c 0,-0.472252 -0.281961,-0.897037 -0.71875,-1.085938 l -9.810546,-4.214844 c -0.14757,-0.06501 -0.307423,-0.09766 -0.466797,-0.09766 z m -8.623006,7.19336 7.449218,3.199218 v 2.97461 l -7.449218,-3.199219 z m 17.257812,0 v 2.974609 l -7.449218,3.199219 v -2.97461 z M 18.042969,48.384766 c -0.152181,0.01605 -0.303646,0.0629 -0.445313,0.142578 -2.845137,1.570167 -3.435547,3.294074 -3.435547,4.474609 0,4.757632 9.184424,7.332031 17.837891,7.332031 8.653467,0 17.837891,-2.574399 17.837891,-7.332031 0,-1.168743 -0.59041,-2.892761 -3.435547,-4.462891 C 45.835679,48.220448 45.115625,48.433373 44.796875,49 c -0.318765,0.566665 -0.105723,1.286703 0.460937,1.605469 1.428473,0.790979 2.218751,1.640845 2.21875,2.408203 0,2.066003 -5.890459,4.958984 -15.476562,4.958984 -9.586105,0 -15.476562,-2.892908 -15.476562,-4.970703 0,-0.755565 0.790278,-1.617261 2.21875,-2.408203 0.566666,-0.318614 0.779687,-1.038804 0.460937,-1.605469 -0.239063,-0.424998 -0.703614,-0.651655 -1.160156,-0.603515 z" transform="scale(.26458)"></path></svg>