<svg xmlns="http://www.w3.org/2000/svg" viewBox="0 0 64 64" id="Quran"><path fill="#00a15e" d="M51.83 43.74v8.51c0 .82-.67 1.5-1.5 1.5H28.09v6c0 .56-.32 1.07-.82 1.33-.49.26-1.1.21-1.55-.12l-2.65-1.89-2.64 1.89c-.26.19-.56.29-.87.29-.23 0-.47-.06-.69-.17-.5-.26-.81-.77-.81-1.33v-6h-.39c-3.03 0-5.5-2.47-5.5-5.51V8.25c0-3.17 2.58-5.75 5.75-5.75h32.41c.83 0 1.5.67 1.5 1.5v39.74zm-3 7.01v-5.51H17.67a2.5 2.5 0 0 0-2.5 2.5v.5a2.51 2.51 0 0 0 2.5 2.51h.39v-3.01c0-.83.67-1.5 1.5-1.5h7.03c.83 0 1.5.67 1.5 1.5v3.01h20.74zm0-8.51V5.5H17.92c-1.52 0-2.75 1.24-2.75 2.75v34.59c.06-.03.13-.05.19-.08.09-.04.18-.09.27-.12.09-.04.18-.07.27-.1.1-.03.2-.07.3-.09.09-.03.18-.05.27-.07.11-.03.24-.05.36-.07l.23-.03c.19-.02.38-.04.58-.04h31.19zM25.09 56.83v-7.59h-4.03v7.59l1.14-.82c.26-.19.57-.28.87-.28.31 0 .62.09.88.28l1.14.82z" class="color007da1 svgShape"></path><path fill="#e3fdf2" d="M48.83 45.24v5.51H28.09v-3.01c0-.83-.67-1.5-1.5-1.5h-7.03c-.83 0-1.5.67-1.5 1.5v3.01h-.39a2.51 2.51 0 0 1-2.5-2.51v-.5a2.5 2.5 0 0 1 2.5-2.5h31.16zm0-39.74v36.74H36.85v-2.02c.83 0 1.5-.67 1.5-1.5 0-.97 2.37-2.44 5.94-2.44.83 0 1.5-.67 1.5-1.5v-21.8c0-.83-.67-1.5-1.5-1.5-3.51 0-5.86-1.42-5.93-2.39v-.07c0-.83-.67-1.5-1.5-1.5V5.5h11.97z" class="colore3fcfd svgShape"></path><path fill="#00a15e" d="M45.79 12.98v21.8c0 .83-.67 1.5-1.5 1.5-3.57 0-5.94 1.47-5.94 2.44 0 .83-.67 1.5-1.5 1.5h-9.5c-.83 0-1.5-.67-1.5-1.5 0-.97-2.37-2.44-5.94-2.44-.03.01-.16.02-.2.01-.39 0-.77-.15-1.05-.43-.29-.28-.45-.66-.45-1.07V12.96c0-.4.16-.78.45-1.06.28-.28.67-.46 1.07-.44.03.01.16.01.19.01 3.51 0 5.85-1.41 5.93-2.38v-.07c0-.83.67-1.5 1.5-1.5h9.51c.83 0 1.5.67 1.5 1.5v.07c.07.97 2.42 2.39 5.93 2.39.83 0 1.5.67 1.5 1.5zm-3 20.37V14.41c-3.53-.34-6.24-1.84-7.13-3.89h-7.12c-.9 2.09-3.71 3.61-7.33 3.9v18.91c3.61.3 6.41 1.81 7.32 3.89h7.14c.9-2.04 3.61-3.53 7.12-3.87z" class="color007da1 svgShape"></path><path fill="#52cc99" d="M42.79 23.87v9.48c-3.51.34-6.22 1.83-7.12 3.87h-7.14c-.91-2.08-3.71-3.59-7.32-3.89v-9.46h2.49c0 .4.16.78.44 1.06l1.55 1.55v2.2c0 .83.67 1.5 1.5 1.5h2.2l1.55 1.55c.29.29.68.44 1.06.44s.77-.15 1.06-.44l1.55-1.55h2.2c.83 0 1.5-.67 1.5-1.5v-2.2l1.55-1.55c.28-.28.44-.66.44-1.06h2.49z" class="color42eaf5 svgShape"></path><path fill="#52cc99" d="M42.79 14.41v9.46H40.3c0-.4-.16-.78-.44-1.06l-1.55-1.55v-2.2c0-.83-.67-1.5-1.5-1.5h-2.2l-1.55-1.55c-.56-.56-1.56-.56-2.12 0l-1.55 1.55h-2.2c-.83 0-1.5.67-1.5 1.5v2.2l-1.55 1.55c-.28.28-.44.66-.44 1.06h-2.49v-9.45c3.62-.29 6.43-1.81 7.33-3.9h7.12c.89 2.05 3.6 3.55 7.13 3.89z" class="color42eaf5 svgShape"></path><path fill="#00a15e" d="M39.86 22.81a1.499 1.499 0 0 1 0 2.12l-1.55 1.55v2.2c0 .83-.67 1.5-1.5 1.5h-2.2l-1.55 1.55c-.29.29-.68.44-1.06.44s-.77-.15-1.06-.44l-1.55-1.55h-2.2c-.83 0-1.5-.67-1.5-1.5v-2.2l-1.55-1.55a1.499 1.499 0 0 1 0-2.12l1.55-1.55v-2.2c0-.83.67-1.5 1.5-1.5h2.2l1.55-1.55c.56-.56 1.56-.56 2.12 0l1.55 1.55h2.2c.83 0 1.5.67 1.5 1.5v2.2l1.55 1.55zm-4.11 1.99.93-.93-.93-.93c-.28-.28-.44-.66-.44-1.06v-1.32h-1.32c-.4 0-.78-.16-1.06-.44l-.93-.93-.93.93c-.28.28-.66.44-1.06.44h-1.32v1.32c0 .4-.16.78-.44 1.06l-.93.93.93.93c.28.28.44.66.44 1.06v1.32h1.32c.4 0 .78.16 1.06.44l.93.93.93-.93c.28-.28.66-.44 1.06-.44h1.32v-1.32c0-.4.16-.78.44-1.06z" class="color007da1 svgShape"></path><path fill="#e3fdf2" d="M36.86 5.5v2.02h-9.51c-.83 0-1.5.67-1.5 1.5v.07c-.08.97-2.42 2.38-5.93 2.38-.03 0-.16 0-.19-.01-.4-.02-.79.16-1.07.44-.29.28-.45.66-.45 1.06v21.83c0 .41.16.79.45 1.07.28.28.66.43 1.05.43.04.01.17 0 .2-.01 3.57 0 5.94 1.47 5.94 2.44 0 .83.67 1.5 1.5 1.5h9.5v2.02H17.64c-.2 0-.39.02-.58.04l-.23.03c-.12.02-.25.04-.36.07-.09.02-.18.04-.27.07-.1.02-.2.06-.3.09-.09.03-.18.06-.27.1-.09.03-.18.08-.27.12-.06.03-.13.05-.19.08V8.25c0-1.51 1.23-2.75 2.75-2.75h18.94z" class="colore3fcfd svgShape"></path><path fill="#e3fdf2" d="m36.68 23.87-.93.93c-.28.28-.44.66-.44 1.06v1.32h-1.32c-.4 0-.78.16-1.06.44l-.93.93-.93-.93c-.28-.28-.66-.44-1.06-.44h-1.32v-1.32c0-.4-.16-.78-.44-1.06l-.93-.93.93-.93c.28-.28.44-.66.44-1.06v-1.32h1.32c.4 0 .78-.16 1.06-.44l.93-.93.93.93c.28.28.66.44 1.06.44h1.32v1.32c0 .4.16.78.44 1.06l.93.93z" class="colore3fcfd svgShape"></path><path fill="#52cc99" d="M25.09 52.25v4.58l-1.14-.82c-.26-.19-.57-.28-.88-.28-.3 0-.61.09-.87.28l-1.14.82v-7.59h4.03v3.01z" class="color42eaf5 svgShape"></path></svg>