<svg xmlns="http://www.w3.org/2000/svg" data-name="1" viewBox="0 0 24 24" id="sunrise"><path fill="#52cc99" d="M5.075,12.474a6.925,6.925,0,0,1,13.85,0,.75.75,0,0,1-1.5,0,5.425,5.425,0,0,0-10.85,0,.75.75,0,0,1-1.5,0Z" class="color39ea80 svgShape"></path><path d="M3.539,12.474a.967.967,0,0,1-.961,1H2.5a1,1,0,0,1,0-2A1.033,1.033,0,0,1,3.539,12.474Zm1.1-5.934A1,1,0,0,0,6.042,5.12L5.918,5A1,1,0,1,0,4.51,6.417Zm16.788,4.934a1,1,0,0,0,0,2H21.5a.967.967,0,0,0,.961-1A1.033,1.033,0,0,0,21.422,11.474ZM12,4.039A1.034,1.034,0,0,0,13,3a1,1,0,0,0-2,0v.078A.967.967,0,0,0,12,4.039ZM18.662,6.83a1,1,0,0,0,.7-.29l.124-.123A1,1,0,1,0,18.082,5l-.124.123a1,1,0,0,0,.7,1.71Zm.938,7.736H4.4a.75.75,0,1,0,0,1.5H19.6a.75.75,0,1,0,0-1.5Zm-1.9,2.842H6.3a.75.75,0,0,0,0,1.5H17.7a.75.75,0,1,0,0-1.5ZM14.85,20.25H9.15a.75.75,0,1,0,0,1.5h5.7a.75.75,0,1,0,0-1.5Z" fill="#52cc99" class="color000000 svgShape"></path></svg>