<svg xmlns="http://www.w3.org/2000/svg" viewBox="0 0 64 64" id="Zakat"><path fill="#00a15e" d="M61.5 22.05v12.52c0 2-1.63 3.63-3.63 3.63h-6.63c-1.32 0-2.46-.71-3.1-1.76-3.88 1-7.66 1.83-11.18 1.83-.58 0-1.16-.02-1.73-.07-.14 0-.27-.01-.41-.02-.1-.01-.21-.01-.31-.02-.15-.01-.3-.04-.46-.06-.09-.01-.19-.02-.28-.04-.16-.03-.32-.07-.47-.11l-.27-.06c-.16-.05-.32-.11-.48-.16-.07-.03-.15-.05-.23-.08-.16-.06-.33-.14-.5-.21l-.18-.09c-.18-.08-.35-.18-.52-.28-.04-.02-.09-.05-.14-.08-.17-.1-.34-.22-.51-.33l-.12-.09c-.2-.15-.4-.31-.59-.47a.204.204 0 0 0-.15-.06h-2.95c.17.72.27 1.47.27 2.21 0 5.17-4.21 9.38-9.38 9.38s-9.38-4.21-9.38-9.38c0-1.39.32-2.74.89-3.96l-.91.31c-1.21.41-2.53.26-3.62-.4a4.326 4.326 0 0 1-2.02-3.06c-.29-1.95.81-3.86 2.7-4.63l21.04-8.7c3.94-1.63 8.37-1.88 12.47-.72l9.66 2.75c.66-.85 1.69-1.42 2.86-1.42h6.63c2 0 3.63 1.63 3.63 3.63zm-3 12.52V22.05c0-.34-.28-.63-.63-.63h-6.63c-.35 0-.63.29-.63.63v12.52c0 .35.28.63.63.63h6.63c.35 0 .63-.28.63-.63zm-10.89-1.09V22.74l-9.71-2.76c-3.46-.98-7.19-.77-10.51.6l-21.04 8.7c-.59.25-.96.84-.87 1.41.08.55.42.83.61.94.33.21.73.25 1.1.13l6.15-2.08c.61-2.06 2.58-3.59 4.87-3.62l11.81-1.14c.82-.08 1.56.53 1.64 1.35.08.83-.53 1.56-1.35 1.64l-11.88 1.14c-.05.01-.1.01-.15.01-1.09 0-2.03.78-2.13 1.79 0 .02.01.04.01.07-.04.56.15 1.09.53 1.5.1.1.2.19.31.26 0 .01 0 .01.01.01.1.07.22.14.34.19l.09.03c.09.03.19.07.29.09.13.03.26.04.4.04h11.48c.79 0 1.55.29 2.14.81.98.87 2.24 1.35 3.55 1.35.04 0 .09 0 .13.01 3.86.34 8.5-.76 12.18-1.73zm-23.68 4.77c0-.75-.14-1.5-.4-2.21h-5.4c-.34 0-.68-.04-1.02-.11-.17-.03-.33-.1-.49-.15-.16-.06-.32-.09-.48-.16-.19-.08-.37-.2-.55-.31-.11-.06-.23-.11-.33-.19-.2-.13-.37-.3-.55-.47-.06-.06-.14-.11-.21-.18 0-.01 0-.01-.01-.02a.218.218 0 0 0-.05-.04c-.13-.14-.22-.3-.33-.45-.08-.11-.16-.21-.23-.32-.08-.14-.14-.28-.21-.42a6.342 6.342 0 0 0-2.5 5.03c0 3.52 2.86 6.38 6.38 6.38s6.38-2.86 6.38-6.38z" class="color007da1 svgShape"></path><path fill="#52cc99" d="M58.5 22.05v12.52c0 .35-.28.63-.63.63h-6.63c-.35 0-.63-.28-.63-.63V22.05c0-.34.28-.63.63-.63h6.63c.35 0 .63.29.63.63z" class="color42eaf5 svgShape"></path><path fill="#e3fdf2" d="M47.61 22.74v10.74c-3.68.97-8.32 2.07-12.18 1.73-.04-.01-.09-.01-.13-.01-1.31 0-2.57-.48-3.55-1.35-.59-.52-1.35-.81-2.14-.81H18.13c-.14 0-.27-.01-.4-.04-.1-.02-.2-.06-.29-.09l-.09-.03c-.12-.05-.24-.12-.34-.19-.01 0-.01 0-.01-.01a1.86 1.86 0 0 1-.31-.26c-.38-.41-.57-.94-.53-1.5 0-.03-.01-.05-.01-.07.1-1.01 1.04-1.79 2.13-1.79.05 0 .1 0 .15-.01l11.88-1.14c.82-.08 1.43-.81 1.35-1.64a1.51 1.51 0 0 0-1.64-1.35l-11.81 1.14c-2.29.03-4.26 1.56-4.87 3.62l-6.15 2.08c-.37.12-.77.08-1.1-.13-.19-.11-.53-.39-.61-.94-.09-.57.28-1.16.87-1.41l21.04-8.7c3.32-1.37 7.05-1.58 10.51-.6l9.71 2.76z" class="colore3fcfd svgShape"></path><path fill="#00a15e" d="M26.22 58.5c.83 0 1.5.67 1.5 1.5s-.67 1.5-1.5 1.5H8.1c-.83 0-1.5-.67-1.5-1.5s.67-1.5 1.5-1.5h18.12z" class="color007da1 svgShape"></path><path fill="#e3fdf2" d="M23.53 36.04c.26.71.4 1.46.4 2.21 0 3.52-2.86 6.38-6.38 6.38s-6.38-2.86-6.38-6.38c0-2 .95-3.84 2.5-5.03.07.14.13.28.21.42.07.11.15.21.23.32.11.15.2.31.33.45.02.01.04.03.05.04.01.01.01.01.01.02.07.07.15.12.21.18.18.17.35.34.55.47.1.08.22.13.33.19.18.11.36.23.55.31.16.07.32.1.48.16.16.05.32.12.49.15.34.07.68.11 1.02.11h5.4z" class="colore3fcfd svgShape"></path></svg>